<?xml version="1.0" encoding="utf-8"?>
<!-- Generator: Adobe Illustrator 25.3.0, SVG Export Plug-In . SVG Version: 6.00 Build 0)  -->
<svg version="1.1" id="afeb311b-6b88-4aea-b470-0151d1e4f4dc"
	 xmlns="http://www.w3.org/2000/svg" xmlns:xlink="http://www.w3.org/1999/xlink" x="0px" y="0px" viewBox="0 0 841.9 595.3"
	 style="enable-background:new 0 0 841.9 595.3;" xml:space="preserve">
<style type="text/css">
	.st0{fill:#FFFFFF;}
</style>
<g>
	<path class="st0" d="M267,337.4c-0.8-0.1-1.4-0.7-2.4-1.8l-0.9-1c-0.1,0-0.1,0-0.2-0.1c-0.7-0.7-1.5-1.4-2.1-2.1
		c-6.4-7.9-40.1-13-48.7-13.6c-0.6-0.1-1.2-0.1-1.9,0l-0.6,0.1l0.1,0.6c0,0.6,0,1.2,0.1,1.9c0.1,1.2,0.2,2.9,0.2,4.3
		c-0.1,3.9,0,8,0.2,11.7c0.1,2,0.2,4.1,0.2,6.1c0.2,3.3,0.4,6.7,0.4,10.1c0.1,4.6-0.2,9.1-0.8,13.6c-1.6,9.7-7.3,14.5-16.9,13.7
		l-0.9-0.1c-5.5-0.7-10.8-2-16-3.8c-6.2-2.1-41.3-16.9-66.8-27.7c-16.5-6.9-28.4-11.9-29.5-12.2c-0.7-0.3-1.5-0.5-2.3-0.6
		c-0.3,0-0.6,0-0.8,0.1l-0.9,0.4l0.3,0.4c-0.3,0.8-0.4,1.5-0.4,2.3c-0.2,5.6-0.4,11.3-0.5,16.8v0.2c-0.1,4.1-0.2,8.5-0.4,12.7
		l-0.1,0.8c-0.1,4.2-0.3,8.7-1.6,12.8c-0.3,1.1-1,1.9-2,2.4c-0.8,0.3-1.6,0.3-2.4-0.1c-1.2-0.6-2.1-1.7-2.3-3
		c-0.2-2.4-0.3-4.8-0.3-7.3c0.2-6.2,0.5-12.5,0.6-18.6v-0.4c0.2-4.8,0.2-9.5,0.4-14.3c0.1-2.6,0.1-5.2,0-7.1c0.1-1.4-0.7-2.6-2-3.1
		c-0.8-0.4-1.6-0.9-2.4-1.2c-2.3-1-4.4-2.2-6.5-3.5c-2.2-1.5-3.4-3.5-3.1-5.6s1.7-3.9,4.1-5c1.9-0.8,3.9-1.4,5.9-1.9l2.8-0.7
		c1-0.3,1.8-1.2,1.8-2.2c0.3-2.5,0.5-4.8,0.5-7c1.3-33.7,3.5-69.2,7.1-108.8c2.5-28.7,5.9-57.4,9.9-85c1.3-9,3.7-17.9,7.2-26.3
		c0.3-0.9,1-1.5,1.8-1.8c0.2-0.1,0.5-0.1,0.7-0.2c0.4,0.1,0.8,0.3,1.2,0.5c0.9,0.6,1.3,1.7,1.1,2.8l-0.3,2.1
		c-0.7,5.4-1.5,11.1-2.4,16.7c-3.8,23.9-6.5,48.5-8.6,69.6c-0.5,4.6-0.7,9.5-1.1,14.1l-0.5,6.4v0.1c-4,35.4-5.8,71.1-7.7,107.7v1.3
		c-0.3,5-0.3,6.9,0.3,7.6v0.1l0.2,0.1c0.3,0.2,0.6,0.3,0.9,0.3c1.8,0,3.6-0.1,5.3-0.4h0.1c0.8,0,1.9-0.2,2.9-0.3
		c20.7-1.9,41.7-2,60.4-2.1c11.8-0.1,24.5,0.5,39.9,1.7l6.9,0.5h0.4c1.6,0.1,3.2,0.2,4.9,0.1c0.6,0,1-0.5,1.1-1.1
		c0.3-3.9,0.3-6.9,0.4-9.7c-0.1-32.8,1.1-62.2,4.1-90c2-19.4,4.5-39.1,6.9-58.1l0.8-6.3c1.4-11.3,3.2-22.7,4.8-33.8V112l0.3-1.7
		c0.7-4.8,1.7-9.4,2.6-13.4l0.1-0.6v-0.1c0-1.1,0.4-2.2,1.3-2.9c0.5-0.3,1.1-0.4,1.7-0.4c0.2,0,0.4,0.1,0.7,0.2
		c2.1,0.6,2.3,2.6,2,4.5v0.1v0.5v0.3c-0.2,4.4-0.5,8.9-1,13.3c-1.2,10.8-2.6,21.7-4,32.2l-0.1,0.7c-1.3,10-2.7,21.2-4,32.2
		c-5.1,40.4-7.8,81.2-8,121.9c0,3.1,0.1,6.2,0.3,9.2l0.1,0.6c0.2,1.9,0.3,2.9,0.7,3.5s1.3,0.7,3.5,1.2c3.7,0.8,7.3,1.5,11,2.2
		s7.3,1.4,11.1,2.2c8.9,1.8,17.6,4.4,26,7.6l0.4,0.2c2.6,0.8,4.9,2.1,7,3.9c1.1,1,1.7,2.4,1.6,3.9c-0.2,1.4-1,2.6-2.2,3.3
		C268.4,337.1,267.7,337.4,267,337.4z M68.8,320.8l-1.2,0.2c0,0-2.8,0.7-4.4,1c-0.5,0.1-0.9,0.5-1,1.1c-0.2,0.6,0.1,1.1,0.6,1.4
		l4.3,2.2l1.2,0.6l0.1-1.2l0.3-4.1L68.8,320.8z M202.7,357.6c-0.2-10.8-0.6-21.9-1.1-34.1c-0.1-1.5-0.1-2.9,0-4.4l0.1-0.8l-0.8-0.1
		h-0.5c-9.6-0.8-94.9-3.6-120.7,2.1c-0.3,0.1-0.6,0-0.9,0.1h-0.4l-0.3,0.1h-0.7v0.6c0,0.2,0,0.4-0.1,0.5v0.1
		c-0.2,1.8-0.2,3.5-0.2,5.3c-0.1,0.9,0,1.8-0.1,2.5v0.5l0.5,0.2c0.7,0.4,86.7,39.7,115.4,41.9h0.3c6.3,0.4,8.3-1,9.1-6.9
		C202.6,362.9,202.8,360.2,202.7,357.6L202.7,357.6z"/>
	<path class="st0" d="M498.2,315.6c0.1,1.8-2.8,5.4-8.6,10.9c-0.8,0.7-1.5,1.5-2.2,2c-4.6,4.1-10.2,6.8-16.2,8
		c-6,1.1-12.3,0.5-18-1.7c-4.5-1.7-8.6-4-12.4-7c-0.1,0-0.3-0.2-0.6-0.5s-0.5-0.3-0.7-0.5l-1.5-1.4c-0.2-0.1-0.4-0.3-0.6-0.5
		c-1.9-1.8-3.7-3.7-5.4-5.6c-5.9,4.7-12.3,8.8-19,12.2c-8.7,4.5-18.2,7.5-27.9,8.8c-2.2,0.3-4.4,0.5-6.6,0.5
		c-6.7,0-13.3-1.2-19.6-3.5c-6.1-2.2-11.8-5.3-17.1-9l-6.5-5.3c-2.7-2.7-5.4-5.3-7.9-8.1v0.2c-0.1-0.1-0.2-0.3-0.5-0.5
		c-0.2-0.3-0.4-0.6-0.7-0.8c-4.7,1.8-9.5,3.3-14.3,4.5c-2,0.6-4.2,1-6.3,1.5s-3.9,0.7-5.3,0.9c-2.1,9.5-6.6,18.3-13.1,25.5
		c-3.5,3.5-6.6,5.3-9.7,5.3c-0.5,0-0.9-0.1-1.4-0.1c-3.5-0.8-6.4-3.9-8.7-9.8c-1.9-4.6-3-9.5-3.3-14.4c-0.2-4-0.3-7.5-0.5-10.5
		l-0.2-0.3c-1.5-1.1-2.7-2.6-3.6-4.2c-1.7-3.3-1.2-7.4,1.2-12.3c2.5-4.8,6-9,10.4-12.4c7.6-5.6,14.5-6.5,20.8-2.5
		c4,2.8,6.8,6.9,7.8,11.7c1.4,6.3,1.5,12.8,0.5,19.1c5.9-0.7,9.8-1.1,11.9-1.6c0.5-0.1,1-0.2,1.5-0.2c2.9-0.9,6.1-1.9,9.6-3.2
		c-0.5-0.5-0.8-1-1.2-1.5c0,0,0-0.1-0.1-0.1h0.1c-12.1-14.7-20.4-30.7-24.5-48.1c-5.6-23.2-5.6-48.2-0.3-74.9
		c4.3-24.2,13.7-47.2,27.6-67.6c8.6-13.2,20.4-23.9,34.3-31.3c13.3-6,24.5-7,33.7-3s15.9,12.8,20.6,26.7l0.7,2h-0.3
		c2.2,8.9,1.9,18.4,2.2,27.5c0.3,9.2-0.1,18.4-1.2,27.5c-2.1,19.2-6.7,38.1-13.6,56.2c-7,18.2-15,36-27.4,51.1
		c-11.3,13.8-25,25.6-40.3,34.8c3.9,4.3,8.1,8.4,12.5,12.2l0.5,0.5c4.5,3.4,9.4,6.2,14.5,8.3c7.3,3.1,15.3,4.3,23.2,3.6
		c8.9-1.3,17.6-4.1,25.5-8.3c6.4-3.3,12.6-7.1,18.4-11.4c-9.7-12.2-16.4-26.6-19.4-41.9c-3-15.8-3.3-32.6-0.6-50.7
		c2.1-18,7.8-35.5,16.9-51.2c5.2-9.9,12.9-18.4,22.3-24.4h0.1c8.6-4.6,16-5.7,22.2-3.4c6.6,2.7,11.8,9.3,15.4,20.2v0.1
		c0.1,0,0.1,0,0.1,0.1c0,0,0,0,0,0l0.5,1.7h-0.2c1.7,6.5,2.7,13.1,3,19.8c0.5,7.3,0.5,14.6,0,21.8c-1,14.4-3.6,28.6-7.8,42.4
		c-4.2,13.6-10.4,26.4-18.4,38.2c-6.8,10.2-15.3,19.2-25.2,26.5c2.6,3,5.4,5.9,8.4,8.6c3,2.5,6.4,4.6,10,6.2
		c4.9,2,10.2,2.8,15.4,2.1c1.6-0.2,3.3-0.6,4.8-1.1c4.8-2.3,9.2-5.4,12.8-9.3c4.1-4.3,5.8-6.5,5.2-6.9c0.2-0.5,0.6-1,1.1-1.2
		c0.5-0.2,1.1-0.2,1.7,0c0.6,0.2,1.1,0.6,1.4,1.1C498.4,314.5,498.4,315.1,498.2,315.6z M295.7,303.5c-0.1-5-1.4-8.5-3.6-10.8
		c-3.5-2.9-7.9-3-13.3-0.3c-1.8,0.9-3.5,2.1-4.8,3.6c-3.1,3.4-5,5.7-5.4,7.2c-0.7,1.2-1.2,2.5-1.6,3.8c0.5-1.4,1.1-2.7,1.8-4
		c2.1-3.4,4.6-5.1,7.6-5.2c1.9,0,3.7,1,4.7,2.7l0.2,0.5l-0.5,0.2c-0.4,0.1-0.9,0.2-1.4,0.2c-0.8,0.1-1.5,0.4-2.1,0.8
		c-0.9,0.7-1.6,1.7-2,2.8c-1,2.4-1.8,4.9-2.3,7.4c2,1.2,5.4,2.3,10,3c3.8,0.8,7.7,1.1,11.6,0.9C295.6,312.1,295.9,307.8,295.7,303.5
		z M293.2,322c-3.5,0.6-7,0.8-10.5,0.6c-3.5-0.1-7-0.8-10.4-2c-0.2,1.6-0.4,3.2-0.3,4.8c0.2,2.9,0.5,5.8,0.9,8.7
		c0.4,2.3,1.1,4.5,2,6.6c1.1,2.5,2.4,3.8,3.7,4.1c1.2,0.2,2.7-0.5,4.3-2.1C288,337.6,291.4,330.7,293.2,322z M369.2,271.6
		c11.7-14.6,19.3-31.9,25.9-49.5c6.7-17.5,11.1-35.8,13-54.5c1-9.3,1.8-17.8,1.4-27s-0.6-18.3-2.9-27.1l-0.3-1.3
		c-0.7-2.3-1.5-4.5-2.4-6.6c-6.7-15.7-18.2-19.9-34.7-13c-6.8,2.9-12.9,6.9-18.3,12c-8.3,7.4-15.5,16-21.2,25.6
		c-21,36.1-29.3,74.9-24.8,116.4c2.7,22.6,10.9,42.4,24.6,59.2C344.7,296.7,358.1,285.2,369.2,271.6L369.2,271.6z M458.2,284.8
		c7.6-11.3,13.5-23.7,17.3-36.7c6.2-20,8.7-41.1,7.3-62c-0.3-6.6-1.4-13-3.1-19.4l-0.5-2c-0.6-1.6-1.1-3.1-1.7-4.8
		c-2.4-5.9-5.4-9.6-9.1-10.9c-3.5-1.4-7.8-0.7-12.7,1.9c-4.4,2.3-8.4,5.4-11.7,9c-5.4,5.8-10,12.4-13.5,19.6
		c-13.3,27.5-17.9,56.7-13.9,87.7c2.3,16.4,8.1,30.9,17.3,42.9l0.1-0.1l0.3,0.5C443.8,303.3,451.9,294.6,458.2,284.8L458.2,284.8z"
		/>
	<path class="st0" d="M556.1,347.8c0.2-0.4,0.4-0.9,0.5-1.4c0.3-1.3,0.1-2.7-0.5-3.9c-0.6-1.3-1.7-2.4-3-3.1c-2.9-1.4-6-2.2-9.2-2.4
		h-0.2h-1l1.3-3.5c3.4-9.2,12.5-33.8,13.4-43.5c0.3-3.8-1.1-4.8-2.5-5.8c-1.8-1.3-4.2-2.1-5.2-1c-1.9,2.1-4,4.3-6.1,6.6
		c-6.2,6.7-13.2,14.4-19.3,20c-6.7,6.1-14.7,13-23.6,18l-0.3,0.2c-1.1,0.7-2.3,1.2-3.5,1.5l-1,0.3v-1c0.2-4,1.2-7.3,3.7-12.1
		c3.6-7,9.3-15.8,13.9-22.8l2.3-3.5c0.7-1.1,1-1.9,0.8-2.3s-0.6-0.7-1.6-1c-1.6-0.7-3.4-0.3-4.6,1c-5.2,6.3-10,13-14.1,20.1
		c-2.9,4.9-5.8,10.1-7.2,16.4c-1,4.6-0.2,7.5,2.6,9.5s6.1,1.9,10.9-0.5c8.6-4.2,16.5-10.8,23.8-17.3c1.5-1.3,4-3.9,6.3-6.1
		c1.5-1.5,2.9-2.9,3.8-3.8c0,0,4.8-4.4,8.6-7.8l2.1-1.9l-0.9,2.6c-0.1,0.3-0.3,1.1-0.7,2.2c-1.7,6.2-6.4,22.6-11.3,32.2
		c-1.2,2.4-2.6,3.4-5.1,3.6c-26.8,2.4-52,11.3-68.4,18.3c-18.6,7.9-33.9,17.5-46.7,29.4c-8.1,7.5-14,15.1-17.9,23.2
		c-2.9,5.7-4.7,11.8-5.2,18.2c-0.7,11.2,4.9,20.3,15.1,25l0,0l0.5,0.2c7.6,3.3,15.9,3.8,25.3,1.4c40.2-10.6,65.9-45,79.8-63.5
		l1.1-1.4c5.7-7.6,10.9-15.6,15.7-23.8c2.3-4,4.7-8.2,7.3-12.9c0.4-0.8,1.2-1.9,2.1-3.3s2-3,2.9-4.6l0.2-0.3h0.4
		c2.2-0.2,7.6-0.6,8.9,0.5c0.9,0.8,1.1,2.1,0.6,3.1c-0.2,0.5-0.5,0.9-0.8,1.3c-0.1,0.1-0.2,0.2-0.3,0.3c-0.2,0.2-0.3,0.4-0.3,0.5
		s0,0.1,0.2,0.4c0.4,0.7,1.1,1.3,1.8,1.5c0.9,0.3,1.8,0.2,2.5-0.4C555,349.7,555.7,348.8,556.1,347.8z M529.6,345.2
		c-25,45.5-50.9,75.9-79.2,93c-2.7,1.6-5.5,3.1-8.4,4.4c-5.6,2.6-11.5,4.4-17.6,5.4c-2.7,0.4-5.4,0.6-8.1,0.6
		c-2.3,0-4.6-0.2-6.9-0.6c-3.7-0.7-6.8-3-8.5-6.4c-2.3-4.2-3.1-9.1-2.4-14.9c0.8-6.5,3.2-12.8,7.6-20c5.6-9.2,13.3-17.2,25-25.8
		c12.9-9.5,27.7-17.3,46.5-24.5c16.9-6.5,35.5-10.2,48-12.2c0.5-0.1,1.1-0.1,1.7-0.2l0.9-0.1l1.8,0.3L529.6,345.2z"/>
	<path class="st0" d="M598.9,422.7c-46.5,59-117.1,93.9-192.2,95c-37.2,0.7-75.1-6.4-108.6-23.1c-33.3-16.8-63-41-83.9-71.3l0.9-0.7
		c25.7,25.8,55.1,47.4,87.9,61.8c32.5,14.5,67.8,23.7,103.8,24.3c72,1.3,144-31.3,191.4-86.7L598.9,422.7z"/>
	<path class="st0" d="M771.9,79c-4.8-1.1-9.8-1.6-14.7-1.4c-18.6,0.8-35.1,3.6-49.7,8.2c-29,7.8-60,19.2-93,34
		c-3.9,1.9-7.9,3.6-11.7,5.4l-4.5,2.1c-3.8,2.2-7.8,4.2-11.8,5.9c-0.3,0.2-0.7,0.4-1,0.5l-1.2,0.6c-3.3,1.6-6.6,3.1-9.8,4.8
		l-0.9,0.5c-9.9,4.9-19.4,10.5-28.6,16.6c-3.3,2-6.3,4.6-8.7,7.7c-0.9,1.3-1.5,2.7-1.7,4.3c-0.1,1.1,0.1,2.2,0.6,3.2
		c1.3,2.6,3.5,4,6.8,3.8c0.8-0.1,1.7-0.3,2.5-0.5h0.1c0.3-0.1,0.5-0.2,0.8-0.2l0.3-0.1c0.7-0.3,1.3-0.8,1.7-1.5
		c1-1.5,0.6-3.5-0.9-4.6c-0.3-0.2-0.7-0.4-1.1-0.5c0.2-0.1,0.3-0.4,0.5-0.5c1.7-1.3,3.7-2.8,6-4.4c9.7-6.3,19.8-12,30.1-17.2
		l3.4-1.9c0.8-0.4,1.3-0.8,1.8-1c0.4-0.3,0.8-0.5,1.2-0.7c0,0.1,10.7-5.6,11.3-5.9c0.7-0.3,1.5-0.6,2.2-1c0.4-0.2,0.7-0.3,1.1-0.6
		c0.2,0,0.5-0.1,0.6-0.3c31.3-14.9,57.4-26.2,78.2-33.7c20.8-7.5,37.4-12.4,49.6-14.8s21.4-3.5,27.3-3.2s9.6,0.8,11.2,1.5
		c0.3,0.1,0.6,0.2,0.9,0.2c4,0.9,6.9,2.3,8.8,4.2c1.8,1.7,3.1,3.8,3.7,6.2c0.5,2.1,0.6,4.3,0.3,6.5c-0.3,1.8-0.7,3.5-1.3,5.2
		c-0.6,1.4-0.9,2-0.9,2c-0.2,0.5-0.4,1.1-0.7,1.6c-0.5,0.9-0.9,1.8-1.2,2.7c-0.4,0.6-0.4,1.4,0,2c0.2,0.3,0.6,0.5,1,0.5
		c0.4,0,0.8-0.1,1.1-0.3h0.1c1.1-0.4,2-1.1,2.5-2.1c2-3.7,3.1-7.8,3.4-12C788.5,89,783.2,81.8,771.9,79z"/>
	<path class="st0" d="M659.6,354.4l4.4-5.6l4.2,2.8c8.1,5.2,12.4,7.7,23,7.7c8.2,0,16.3-2,23.7-5.8c12.1-6.5,21.9-18.8,21.2-21.7
		c-0.1-0.2-0.7-0.3-1-0.3s-2.3,1.5-4.7,4.8c-9,11.7-24.2,19.6-37.6,19.6c-7.9,0-12.6-2-19.5-8.4c-2.7-2.7-3.8-3.8-3.8-5.3
		c0.1-1,0.5-1.8,1.3-2.5l2.1-2.6c8.1-9.7,18-21.8,19.2-24.1c-0.5-0.3-1.2-0.5-1.8-0.5c-1,0.1-1.9,0.4-2.8,0.8
		c-0.8,0.3-4,2.9-11.5,11.1c-2.1,2.1-4,4.1-5.6,5.7c-4.7,4.9-5.1,5.2-6,5.2c-2.6,0-12.5-22.7-13.4-25.4c-2.9-6.8-4.1-7.4-7-7.4
		c-1.7,0-2.8,0.3-3.2,0.8c-0.6,0.7-0.5,2.4,0.2,5.2c2,6.7,8.1,19.9,12.7,26.9c1,1.5,3.7,5.9,3.7,7.3s-3.7,6.1-4.8,7.5
		c-3,3.5-8.7,10.1-8.3,12.1c0,0.1,0.1,0.4,0.9,0.9l0.3,0.2c0.7,0.6,1.5,1,2.4,1.1C650.8,364.7,654.2,361.1,659.6,354.4z"/>
	<path class="st0" d="M592.8,127.8c4.1,19.3,8.7,38.4,12.2,58c3.5,20.2,5.7,40.7,6.5,61.2c1.8,40.5,4.4,86.3-8,123.3
		c-1.2,3.6,1.4,2.3,2.2-0.2c12.5-37.3,13.4-82.5,11.7-123.3c-0.7-20.6-2.9-41.1-6.3-61.4c-3.5-20.2-8.3-40-12.6-60
		C598,122.4,592.2,124.8,592.8,127.8L592.8,127.8z"/>
	<path class="st0" d="M603.7,373.8c-0.5,0-0.9-0.2-1.2-0.6c-0.8-0.9-0.4-2.3-0.1-3.4c11.8-35.2,9.9-79,8.2-117.7l-0.2-5.1
		c-0.8-20.5-3-40.9-6.5-61.1c-2.5-13.8-5.5-27.7-8.5-41.1c-1.2-5.6-2.5-11.2-3.7-16.8c-0.5-2.6,1.7-4.7,4.2-5.2
		c2.1-0.4,3.7,0.5,4.1,2.3c1.2,5.6,2.4,11.2,3.7,16.8c3.1,14.1,6.4,28.7,8.9,43.2c3.5,20.4,5.6,40.9,6.3,61.6
		c1.5,36.8,1.5,84.1-11.8,123.8c-0.6,1.7-1.8,3.1-2.9,3.3C603.9,373.8,603.8,373.8,603.7,373.8z M596.7,125.3c-0.2,0-0.3,0-0.5,0.1
		c-1.2,0.2-2.4,1.3-2.2,2.2l0,0c1.2,5.6,2.4,11.2,3.7,16.8c3,13.4,6.1,27.4,8.6,41.2c3.5,20.3,5.7,40.8,6.6,61.4l0.2,5.1
		c1.3,30.5,2.8,64.2-2.4,94.5c7-33.6,6.7-70.1,5.5-99.7c-0.7-20.5-2.8-41-6.3-61.2c-2.5-14.5-5.8-29.1-8.9-43.1
		c-1.2-5.6-2.5-11.2-3.7-16.8C597.3,125.5,597.1,125.3,596.7,125.3z"/>
	<path class="st0" d="M687.1,203c-1.1-0.3-2.2-0.5-3.3-0.5c-1.8-0.1-3.6,0-5.4,0.2c-4.6,0.8-8.8,1.4-12.6,2.2
		c-17.3,3.4-36.2,7.9-56.8,13.8c-1,0.3-1.8,0.4-2.4,0.6c-1.3,0.5-2.8,0.9-3.7,1.2c-2.5,0.9-5.8,2-8.2,2.9c-0.5,0.2-0.9,0.4-1.4,0.6
		c-0.5,0.3-1.1,0.5-1.7,0.7l-1.3,0.5c-1.4,0.5-2.5,1-3.6,1.4c-3.3,1.1-6.6,2.6-9.6,4.4c-1.1,0.5-1.9,1.4-2.4,2.5
		c-0.3,0.9-0.4,1.9-0.1,2.9c0.3,0.7,0.9,1.4,1.6,1.7c0.9,0.5,2,0.6,3,0.2c1.2-0.4,2.9-1,5.1-1.9s4.2-1.9,6.3-3
		c0.3-0.1,0.5-0.3,0.8-0.4c1.2-0.5,2.3-1,3.2-1.4c0.5-0.2,0.9-0.4,1.4-0.6c2.6-1,10.7-4.1,10.8-4.2s0.5-0.2,0.8-0.2
		c0.6-0.2,1.4-0.4,2.5-0.8c9.2-2.9,19.6-5.9,31-8.7c11.4-2.8,21.4-5.1,29.9-7s13-2.8,13.5-2.9c0.6-0.1,1.2-0.2,1.8-0.4
		c0.7-0.1,1.3-0.4,2-0.8c0.5-0.2,0.8-0.7,0.8-1.2C688.8,203.9,688.1,203.2,687.1,203z"/>
</g>
</svg>
