<?xml version="1.0" encoding="utf-8"?>
<!-- Generator: Adobe Illustrator 23.0.3, SVG Export Plug-In . SVG Version: 6.00 Build 0)  -->
<svg version="1.1" id="Calque_1" xmlns="http://www.w3.org/2000/svg" xmlns:xlink="http://www.w3.org/1999/xlink" x="0px" y="0px"
	 viewBox="0 0 841.89 595.28" style="enable-background:new 0 0 841.89 595.28;" xml:space="preserve">
<style type="text/css">
	.st0{fill:#FFFFFF;}
	.st1{fill:#0F0D0D;}
</style>
<g>
	<g>
		<g>
			<path class="st1" d="M287.08,303.52c-0.72-0.06-1.21-0.63-2.12-1.6c-0.25-0.29-0.49-0.58-0.74-0.87
				c-0.09-0.01-0.09-0.01-0.17-0.1c-0.16-0.19-0.93-0.79-1.84-1.85c-5.59-6.83-34.88-11.27-42.31-11.85
				c-1.07-0.08-1.43-0.11-1.62-0.04l-0.55,0.14l0.05,0.54c-0.03,0.45,0.01,0.99,0.05,1.63c0.1,1.09,0.16,2.53,0.16,3.7
				c-0.09,3.42,0,6.93,0.2,10.2c0.05,1.71,0.18,3.53,0.21,5.33c0.22,2.9,0.36,5.79,0.4,8.76c-0.02,3.78-0.07,7.84-0.65,11.84
				c-1.38,8.45-6.38,12.57-14.71,11.92c-0.27-0.02-0.54-0.04-0.8-0.06c-4.29-0.51-8.89-1.59-13.89-3.34
				c-5.44-1.86-35.88-14.68-58.11-24.06c-14.31-5.98-24.69-10.38-25.66-10.65c-0.87-0.34-1.49-0.48-2.03-0.52
				c-0.36-0.03-0.54,0.05-0.73,0.12l-0.74,0.31l0.24,0.38c-0.21,0.43-0.27,1.15-0.34,2.04c-0.2,4.85-0.31,9.8-0.41,14.56l-0.01,0.09
				l-0.01,0.09c-0.1,3.6-0.21,7.38-0.32,11.05l-0.06,0.72c-0.11,3.68-0.23,7.55-1.41,11.14c-0.26,0.98-0.94,1.73-1.69,2.13
				c-0.38,0.15-0.83,0.2-1.19,0.18s-0.62-0.14-0.88-0.25c-0.87-0.34-1.86-1.49-1.96-2.59c-0.22-1.82-0.24-3.89-0.23-6.32
				c0.15-5.39,0.4-10.86,0.54-16.16l0.03-0.36c0.13-4.14,0.19-8.28,0.33-12.41c0.08-2.24,0.08-4.49,0.03-6.21
				c0.01-1.26-0.56-2.11-1.77-2.75c-0.69-0.32-1.38-0.74-2.08-1.06c-1.92-0.87-3.82-1.83-5.62-3.05c-1.88-1.32-2.92-3.02-2.69-4.89
				c0.14-1.79,1.43-3.4,3.58-4.31c1.67-0.69,3.42-1.18,5.18-1.67c0.83-0.21,1.56-0.42,2.39-0.62c0.92-0.29,1.51-0.96,1.59-1.95
				c0.26-2.15,0.42-4.2,0.47-6.09c1.11-29.28,3.06-60.21,6.18-94.55c2.21-24.96,5.14-49.86,8.63-73.91
				c1.3-8.54,3.32-16.05,6.28-22.84c0.44-1.05,1.1-1.44,1.57-1.59c0.19-0.08,0.46-0.14,0.64-0.13c0.36,0.03,0.7,0.23,1.05,0.44
				c0.78,0.42,1.13,1.62,0.98,2.41l-0.23,1.79c-0.64,4.72-1.29,9.62-2.12,14.51c-3.42,20.81-5.72,42.17-7.59,60.48
				c-0.4,4.02-0.64,8.23-0.95,12.26c-0.15,1.88-0.29,3.76-0.43,5.55l-0.01,0.09c-3.48,30.8-5.08,61.85-6.65,93.61l0,1.17
				c-0.25,4.31-0.29,6.02,0.3,6.61l-0.01,0.09l0.17,0.1c0.17,0.1,0.43,0.21,0.79,0.24c0.98,0.08,2.71-0.15,4.62-0.36l0.09,0.01
				c0.72-0.03,1.63-0.14,2.54-0.26c17.96-1.66,36.25-1.77,52.48-1.86c10.28-0.1,21.32,0.4,34.66,1.44c1.97,0.15,3.94,0.31,6,0.47
				l0.36,0.03c1.62,0.13,2.97,0.14,4.23,0.06c0.54-0.05,0.93-0.38,0.98-1c0.26-3.41,0.29-6.01,0.3-8.44
				c-0.12-28.47,0.96-54.06,3.57-78.27c1.76-16.89,3.9-34.01,6-50.52l0.69-5.44c1.21-9.82,2.8-19.78,4.18-29.4l0.01-0.09l0.3-1.51
				c0.6-4.19,1.45-8.18,2.26-11.62c0.01-0.18,0.03-0.36,0.04-0.54l0.01-0.09c0.06-0.81,0.24-1.88,1.1-2.53
				c0.38-0.24,0.93-0.38,1.47-0.34c0.18,0.01,0.35,0.12,0.62,0.14c1.85,0.5,1.99,2.22,1.76,3.92l-0.01,0.09
				c-0.01,0.18-0.03,0.36-0.03,0.45l-0.02,0.27c-0.2,3.85-0.41,7.71-0.9,11.55c-1.09,9.37-2.27,18.83-3.44,28.02l-0.05,0.63
				c-1.12,8.65-2.34,18.46-3.44,28.02c-4.66,38-6.91,72.69-6.99,106.01c-0.03,2.7,0.12,5.41,0.27,8.04l0.05,0.54
				c0.14,1.63,0.26,2.54,0.58,3.01c0.42,0.39,1.12,0.63,3.07,1.05c3.19,0.7,6.38,1.31,9.58,1.92c3.19,0.61,6.39,1.22,9.67,1.92
				c7.89,1.6,15.45,3.9,22.63,6.63l0.34,0.21c2.1,0.79,4.28,1.68,6.13,3.36c1,0.98,1.45,2.18,1.36,3.35
				c-0.19,1.24-0.9,2.27-2.02,2.9C288.09,303.33,287.52,303.56,287.08,303.52z M114.81,289.05l-1,0.19c0,0-2.39,0.62-3.85,0.87
				c-0.46,0.14-0.85,0.48-0.88,0.93c-0.13,0.53,0.1,1,0.54,1.21l3.73,1.91l1.04,0.53l0.08-1.07l0.28-3.58L114.81,289.05z
				 M231.22,321.07c-0.17-9.38-0.5-19.04-0.94-29.62c-0.09-2.26,0.02-3.78,0.02-3.78l0.06-0.72l-0.72-0.06
				c-0.09-0.01-0.27-0.02-0.45-0.03c-8.32-0.65-82.53-3.17-104.9,1.84c-0.28,0.07-0.54,0.05-0.82,0.12
				c-0.18-0.01-0.27-0.02-0.36-0.03l-0.28,0.07l-0.63,0.04l-0.04,0.54c-0.01,0.18-0.03,0.36-0.12,0.44l-0.01,0.09
				c-0.21,1.52-0.15,3.14-0.18,4.58c-0.06,0.8-0.03,1.53-0.08,2.15l-0.03,0.45l0.43,0.22c0.6,0.32,75.41,34.5,100.3,36.44l0.27,0.02
				c5.47,0.34,7.18-0.88,7.94-5.96C231.14,325.57,231.23,323.24,231.22,321.07z"/>
			<path class="st1" d="M488.15,284.55c0.1,1.56-2.45,4.7-7.45,9.49c-0.68,0.59-1.27,1.28-1.95,1.77c-4.11,3.62-8.9,5.97-14.09,6.95
				c-5.39,0.98-10.57,0.49-15.67-1.47c-3.81-1.48-7.44-3.43-10.76-6.07c-0.1,0-0.29-0.2-0.49-0.4c-0.2-0.1-0.4-0.29-0.6-0.39
				l-1.27-1.17c-0.39-0.29-0.49-0.39-0.49-0.39c-1.66-1.56-3.23-3.23-4.7-4.9c-4.01,3.33-9.49,6.85-16.54,10.57
				c-7.63,3.92-15.76,6.46-24.28,7.63c-1.95,0.29-3.82,0.39-5.78,0.39c-5.78,0-11.55-1.08-17.03-3.03
				c-5.38-1.95-10.27-4.6-14.88-7.83l-5.68-4.6c-2.35-2.35-4.7-4.6-6.85-7.05c0,0.1,0,0.1,0,0.1v0.1c-0.1-0.1-0.2-0.29-0.39-0.39
				c-0.2-0.29-0.39-0.49-0.59-0.68c-4.8,1.76-8.91,3.03-12.43,3.91c-1.77,0.49-3.63,0.88-5.48,1.27c-1.95,0.3-3.43,0.6-4.6,0.79
				c-0.39,2.44-1.56,5.87-3.42,10.08c-1.87,4.31-4.51,8.33-7.94,12.14c-3.03,3.04-5.78,4.6-8.42,4.6c-0.39,0-0.78-0.1-1.17-0.1
				c-3.04-0.68-5.58-3.43-7.54-8.52c-1.67-3.91-2.55-8.12-2.84-12.53c-0.2-3.52-0.29-6.56-0.39-9.1l-0.2-0.29
				c-0.98-0.68-2.05-1.86-3.13-3.63c-1.48-2.83-1.08-6.46,1.08-10.66c2.25-4.21,5.19-7.84,9-10.77c6.66-4.9,12.63-5.68,18.11-2.15
				c3.43,2.35,5.68,5.68,6.85,10.08c1.17,5.68,1.37,11.26,0.39,16.64c5.09-0.59,8.52-0.98,10.38-1.37c0.49-0.1,0.88-0.2,1.27-0.2
				c2.54-0.78,5.29-1.67,8.32-2.75c-0.39-0.39-0.68-0.88-1.08-1.27c0,0,0-0.1-0.1-0.1c0.1,0,0.1,0,0.1,0
				c-10.57-12.82-17.72-26.72-21.34-41.8c-4.9-20.16-4.9-41.89-0.29-65.09c3.81-21.24,11.85-40.82,23.98-58.73
				c7.63-11.55,17.61-20.66,29.85-27.22c11.55-5.19,21.34-6.07,29.27-2.64c7.83,3.42,13.8,11.16,17.91,23.19l0.59,1.77h-0.29
				c1.95,7.73,1.68,16.03,1.88,23.87c0.29,8.42-0.18,15.51-1.06,23.93c-1.86,16.73-5.78,33.08-11.85,48.84
				c-6.07,15.86-13.06,31.29-23.83,44.41c-9.98,12.14-21.63,22.22-35.04,30.25c3.32,3.72,6.95,7.24,10.87,10.57l0.39,0.39
				c3.91,2.93,8.12,5.38,12.63,7.24c6.46,2.74,13.21,3.72,20.16,3.14c7.63-1.08,14.97-3.53,22.22-7.25
				c6.66-3.52,12.04-6.85,15.96-9.88c-8.61-10.97-14.29-23.1-16.94-36.42c-2.64-13.7-2.83-28.39-0.49-44.05
				c1.95-16.06,6.85-30.93,14.68-44.54c4.8-8.91,11.26-16.06,19.39-21.25h0.1c7.44-4.01,13.9-4.99,19.28-2.93
				c5.78,2.35,10.27,8.12,13.41,17.52v0.1c0.1,0,0.1,0.1,0.1,0.1l0.39,1.47h-0.2c1.47,5.68,2.35,11.45,2.64,17.23
				c0.39,6.36,0.39,12.63,0,18.99c-0.88,12.63-3.13,24.96-6.75,36.9c-3.71,12.04-9.1,23.1-15.95,33.18
				c-6.07,9.1-13.42,16.74-21.93,23.01c2.25,2.64,4.7,5.09,7.34,7.44c2.65,2.25,5.58,4.02,8.72,5.38c4.4,1.76,8.81,2.44,13.41,1.86
				c1.47-0.2,2.83-0.49,4.21-0.98c3.91-1.76,7.63-4.51,11.15-8.12c3.53-3.72,4.99-5.68,4.51-5.97c0.2-0.49,0.59-0.89,0.98-1.08
				c0.49-0.2,0.98-0.2,1.47,0c0.59,0.2,0.99,0.6,1.18,0.99C488.34,283.57,488.34,284.06,488.15,284.55z M312.04,273.98
				c-0.1-4.31-1.17-7.44-3.13-9.39c-3.04-2.55-6.85-2.65-11.55-0.29c-1.37,0.59-2.74,1.66-4.21,3.13c-2.74,2.94-4.3,4.99-4.69,6.26
				c-0.59,1.08-1.08,2.25-1.38,3.33c0.6-1.48,1.08-2.65,1.57-3.43c1.86-2.93,4.01-4.41,6.66-4.51c1.86,0.1,3.23,0.89,4.11,2.35
				l0.2,0.39l-0.39,0.2c-0.39,0.1-0.78,0.2-1.17,0.2c-0.68,0.1-1.27,0.29-1.86,0.68c-0.59,0.29-1.17,1.17-1.76,2.44
				c-0.68,1.38-1.28,3.53-1.96,6.46c1.77,1.08,4.7,1.96,8.72,2.65c4.11,0.78,7.44,0.98,10.08,0.78
				C311.95,282.1,312.24,278.29,312.04,273.98z M309.89,290.13c-2.44,0.49-5.48,0.59-9.1,0.49c-3.53-0.2-6.56-0.78-9.01-1.76
				c-0.2,1.08-0.29,2.44-0.29,4.2c0.1,1.86,0.29,4.31,0.78,7.54c0.39,1.96,0.98,3.92,1.77,5.78c0.98,2.16,2.05,3.33,3.23,3.53
				c1.08,0.2,2.35-0.39,3.72-1.86C305.39,303.64,308.33,297.67,309.89,290.13z M375.97,246.28c10.17-12.72,16.78-27.77,22.55-43.04
				c5.87-15.27,9.6-31.13,11.26-47.38c0.88-8.12,1.54-15.45,1.25-23.48c-0.29-8.13-0.5-15.9-2.55-23.53l-0.29-1.17
				c-0.59-1.96-1.27-3.92-2.06-5.78c-5.86-13.6-15.85-17.33-30.14-11.26c-5.87,2.54-11.26,5.97-15.86,10.38
				c-7.24,6.46-13.41,13.9-18.4,22.22c-18.31,31.42-25.55,65.2-21.53,101.21c2.35,19.67,9.49,36.81,21.43,51.49
				C354.82,268,366.28,258.12,375.97,246.28z M453.4,257.73c6.56-9.69,11.65-20.37,15.07-31.92c3.53-11.64,5.68-23.49,6.46-35.72
				c0.3-6.07,0.3-12.14-0.1-18.21c-0.29-5.78-1.27-11.45-2.74-16.84l-0.39-1.76c-0.49-1.37-0.98-2.75-1.47-4.21
				c-2.06-5.09-4.7-8.32-7.94-9.49c-3.03-1.17-6.75-0.59-11.05,1.66c-3.82,1.95-7.24,4.6-10.28,7.93
				c-4.7,5.09-8.61,10.67-11.75,17.03c-11.55,23.89-15.56,49.34-12.04,76.25c1.96,14.29,7.05,26.82,15.08,37.3l0.1-0.1l0.29,0.39
				C440.67,273.98,447.62,266.54,453.4,257.73z"/>
		</g>
		<path class="st1" d="M538.49,312.53c0.15-0.32,0.33-0.74,0.43-1.19c0.25-1.23,0.11-2.34-0.42-3.38c-0.59-1.19-1.45-2.06-2.63-2.68
			c-1.98-1.04-5.63-1.99-7.96-2.07l-0.17-0.02h-0.89l1.15-3.02c2.98-8.05,10.88-29.4,11.66-37.87c0.3-3.3-0.95-4.21-2.16-5.08
			c-1.57-1.11-3.61-1.85-4.52-0.91c-1.68,1.79-3.45,3.73-5.27,5.72c-5.37,5.86-11.45,12.51-16.77,17.37
			c-5.81,5.32-12.79,11.33-20.51,15.66l-0.28,0.15c-1.19,0.68-1.64,0.93-3.07,1.34l-0.85,0.24l0.05-0.89
			c0.21-3.48,1.08-6.34,3.21-10.56c3.11-6.11,8.09-13.71,12.09-19.83l2-3.04c0.62-0.96,0.86-1.65,0.73-2.03
			c-0.11-0.33-0.56-0.6-1.42-0.89c-0.96-0.32-2.76-0.63-3.97,0.86c-6.19,7.55-9.58,12.85-12.31,17.44
			c-2.51,4.22-5.06,8.8-6.27,14.24c-0.9,4.04-0.21,6.51,2.28,8.26c2.48,1.74,5.3,1.62,9.43-0.39c7.48-3.65,14.33-9.42,20.71-15.02
			c1.26-1.12,3.52-3.35,5.51-5.32c1.31-1.3,2.54-2.51,3.35-3.29c0.01-0.01,4.17-3.79,7.52-6.79l1.8-1.61l-0.79,2.28
			c-0.08,0.23-0.28,0.92-0.57,1.96c-1.52,5.37-5.55,19.63-9.8,27.98c-1.08,2.1-2.27,2.95-4.41,3.15
			c-23.27,2.11-45.19,9.8-59.49,15.88c-16.16,6.87-29.44,15.24-40.61,25.57c-7.04,6.53-12.14,13.12-15.6,20.15
			c-2.75,5.64-4.22,10.82-4.5,15.82c-0.57,9.77,4.22,17.68,13.17,21.77h0.01l0.39,0.17c6.61,2.9,13.83,3.31,22.04,1.26
			c34.9-9.17,57.28-39.06,69.29-55.11l0.92-1.22c4.58-6.11,9.06-12.88,13.67-20.71c2.03-3.44,4.11-7.11,6.35-11.21
			c0.36-0.66,1.03-1.69,1.79-2.88c0.8-1.23,1.72-2.65,2.53-4l0.16-0.27l0.31-0.03c1.95-0.2,6.57-0.56,7.74,0.44
			c0.75,0.64,0.94,1.66,0.51,2.71c-0.18,0.41-0.42,0.79-0.71,1.14c-0.08,0.1-0.17,0.2-0.27,0.29c-0.19,0.2-0.31,0.33-0.31,0.44
			c-0.01,0.04,0.01,0.13,0.15,0.33c0.42,0.66,0.99,1.13,1.61,1.35c0.77,0.27,1.56,0.15,2.19-0.38
			C537.42,314.23,538.02,313.45,538.49,312.53z M515.4,310.27c-21.69,39.55-44.21,65.99-68.84,80.82c-2.54,1.49-4.92,2.74-7.26,3.82
			c-5.1,2.34-10.12,3.89-15.33,4.73c-2.35,0.38-4.76,0.57-7.04,0.57c-2.18,0-4.23-0.18-5.96-0.53c-3.24-0.65-5.72-2.51-7.38-5.53
			c-2.02-3.64-2.71-7.88-2.09-12.94c0.67-5.61,2.77-11.15,6.62-17.43c4.89-8.02,11.58-14.93,21.69-22.4
			c11.24-8.29,24.08-15.05,40.42-21.27c14.71-5.62,30.84-8.88,41.77-10.62c0.46-0.07,0.94-0.12,1.51-0.17l0.77-0.07l1.53,0.25
			L515.4,310.27z"/>
		<path class="st1" d="M575.63,377.66c-19.71,24.92-45.04,45.61-73.79,59.98c-28.8,14.26-60.93,22.08-93.32,22.6
			c-32.31,0.61-65.28-5.57-94.45-20.07c-28.98-14.6-54.78-35.66-72.93-61.96l0.76-0.63c22.36,22.47,47.89,41.24,76.41,53.69
			c28.28,12.65,58.9,20.59,90.2,21.09c62.57,1.18,125.17-27.18,166.37-75.33L575.63,377.66z"/>
	</g>
	<path class="st1" d="M726.09,78.77c-3.62-0.9-7.86-1.37-12.77-1.24c-16.14,0.7-30.49,3.11-43.17,7.13
		c-25.17,6.82-52.1,16.71-80.88,29.6c-3.42,1.61-6.85,3.15-10.19,4.67c-1.33,0.61-2.64,1.22-3.94,1.83
		c-3.37,1.85-6.73,3.69-10.29,5.1c-0.28,0.13-0.56,0.31-0.91,0.43l-1.03,0.49c-2.86,1.36-5.72,2.72-8.48,4.15l-0.78,0.46
		c-9.72,4.94-18.1,9.77-24.89,14.43c-2.89,1.71-5.36,3.95-7.6,6.66c-0.89,1.41-1.4,2.59-1.48,3.71c0,1.1,0.14,2.1,0.5,2.81
		c1.11,2.3,3.06,3.46,5.93,3.28c0.75-0.11,1.5-0.22,2.15-0.41c0,0,0,0,0.08-0.01c0.24-0.12,0.49-0.16,0.74-0.19l0.25-0.04
		c0.65-0.27,1.17-0.77,1.51-1.33c0.42-0.57,0.5-1.18,0.47-1.94c-0.2-1.34-1-2.15-2.24-2.48c0.15-0.11,0.3-0.3,0.45-0.41
		c1.44-1.15,3.2-2.43,5.21-3.84c8.53-5.52,17.23-10.48,26.17-14.96l2.99-1.64c0.71-0.36,1.17-0.68,1.56-0.91
		c0.54-0.34,0.85-0.55,1.02-0.58c0.02,0.11,9.33-4.86,9.86-5.13c0.64-0.27,1.28-0.53,1.91-0.88c0.24-0.12,0.65-0.27,0.95-0.48
		c0.25-0.04,0.4-0.15,0.56-0.25c27.23-12.99,49.93-22.77,68-29.29c18.07-6.53,32.49-10.8,43.14-12.91
		c10.66-2.1,18.6-3.03,23.74-2.77c5.06,0.26,8.35,0.71,9.71,1.27c0.36,0.12,0.54,0.17,0.8,0.22c3.43,0.76,6,2,7.68,3.62
		c1.69,1.62,2.72,3.42,3.18,5.39c0.47,1.98,0.49,3.84,0.25,5.66c-0.32,1.83-0.7,3.25-1.11,4.5c-0.5,1.18-0.76,1.73-0.76,1.73
		c-0.12,0.36-0.3,0.81-0.56,1.37c-0.41,0.74-0.79,1.56-1.01,2.36c-0.32,0.73-0.31,1.32,0.01,1.78c0.22,0.31,0.57,0.42,0.83,0.47
		c0.25-0.04,0.59-0.09,0.99-0.23c0.08-0.01,0.08-0.01,0.08-0.01c0.97-0.32,1.65-0.93,2.19-1.86c1.72-3.32,2.73-6.78,2.94-10.48
		C740.48,87.51,735.89,81.22,726.09,78.77z"/>
	<path class="st1" d="M628.45,318.23l3.79-4.87l3.64,2.42c7.02,4.53,10.8,6.71,20.02,6.71c7.04,0,14.54-1.83,20.56-5.03
		c10.51-5.64,18.99-16.38,18.37-18.86c-0.06-0.22-0.62-0.24-0.86-0.24c-0.29,0.09-2.04,1.33-4.09,4.2
		c-7.86,10.18-20.99,17.01-32.68,17.01c-6.84,0-10.96-1.77-16.92-7.29c-2.33-2.32-3.29-3.28-3.29-4.58c0.01-0.93,0.56-1.6,1.1-2.13
		l1.83-2.23c7-8.47,15.64-18.91,16.71-21c-0.23-0.17-0.76-0.42-1.59-0.42c-0.62,0-1.71,0.37-2.42,0.73
		c-0.67,0.24-3.43,2.49-9.98,9.65c-1.81,1.82-3.47,3.53-4.87,4.98c-4.07,4.22-4.4,4.54-5.23,4.54c-2.27,0-10.88-19.77-11.66-22.12
		c-2.55-5.93-3.57-6.43-6.07-6.43c-1.5,0-2.44,0.23-2.79,0.68c-0.48,0.62-0.42,2.11,0.2,4.56c1.79,5.8,7.02,17.29,11.07,23.37
		c0.84,1.27,3.25,5.17,3.25,6.38c0,1.32-3.22,5.3-4.21,6.49c-2.64,3.08-7.54,8.79-7.24,10.55c0.02,0.1,0.06,0.38,0.81,0.81
		l0.23,0.18c0.62,0.61,1.57,0.96,2.12,0.96C620.76,327.24,623.77,324.07,628.45,318.23z"/>
	<g>
		<path class="st1" d="M570.38,121.29c3.6,16.77,7.6,33.41,10.63,50.39c3.13,17.51,4.91,35.31,5.69,53.24
			c1.53,35.19,3.83,75.04-6.99,107.21c-1.06,3.14,1.18,2.01,1.92-0.22c10.89-32.41,11.64-71.7,10.18-107.19
			c-0.74-17.96-2.41-35.82-5.47-53.38c-3.06-17.58-7.22-34.79-10.94-52.13C574.86,116.61,569.81,118.65,570.38,121.29L570.38,121.29
			z"/>
		<path class="st1" d="M579.83,335.17c-0.42,0-0.81-0.17-1.09-0.48c-0.68-0.78-0.37-2.03-0.08-2.91
			c10.29-30.61,8.61-68.72,7.13-102.33l-0.2-4.47c-0.81-18.69-2.72-36.55-5.68-53.09c-2.15-12.03-4.83-24.1-7.42-35.77
			c-1.08-4.86-2.16-9.71-3.2-14.58c-0.48-2.22,1.5-4.08,3.61-4.53c1.81-0.39,3.26,0.41,3.59,1.98c1.05,4.87,2.12,9.72,3.2,14.58
			c2.72,12.25,5.54,24.93,7.74,37.59c2.89,16.59,4.68,34.1,5.48,53.53c1.32,31.99,1.34,73.13-10.24,107.59
			c-0.5,1.49-1.55,2.67-2.55,2.88C580.04,335.16,579.93,335.17,579.83,335.17z M573.8,119.11c-0.12,0-0.26,0.02-0.43,0.05
			c-1.02,0.22-2.08,1.1-1.91,1.9l0,0c1.04,4.86,2.12,9.71,3.2,14.56c2.6,11.7,5.28,23.79,7.44,35.86
			c2.97,16.64,4.89,34.6,5.71,53.38l0.2,4.47c1.17,26.51,2.46,55.78-2.06,82.13c6.05-29.25,5.82-60.96,4.76-86.71
			c-0.8-19.33-2.58-36.75-5.45-53.24c-2.2-12.62-5.01-25.26-7.72-37.49c-1.08-4.86-2.16-9.72-3.21-14.6
			C574.28,119.22,574.11,119.11,573.8,119.11z"/>
	</g>
	<path class="st1" d="M652.38,186.65c-0.89-0.29-1.84-0.4-2.87-0.42c-1.63-0.1-3.24-0.03-4.73,0.2c-3.98,0.68-7.64,1.23-10.94,1.89
		c-15.04,2.93-31.46,6.91-49.41,11.97c-0.87,0.23-1.59,0.32-2.06,0.5c-1.09,0.43-2.47,0.78-3.21,1.04
		c-2.14,0.76-5.06,1.74-7.11,2.51c-0.41,0.16-0.8,0.34-1.2,0.53c-0.62,0.3-0.56,0.27-1.45,0.6l-1.17,0.47
		c-1.21,0.44-2.13,0.82-3.17,1.24c-2.44,0.79-5.22,2.05-8.37,3.8c-1.03,0.49-1.68,1.27-2.05,2.18c-0.29,0.89-0.34,1.67-0.05,2.48
		c0.27,0.64,0.77,1.16,1.41,1.49c0.66,0.41,1.51,0.45,2.58,0.21c1.06-0.33,2.51-0.88,4.43-1.68c1.88-0.84,3.67-1.67,5.46-2.56
		c0.23-0.11,0.47-0.23,0.7-0.33c1.08-0.46,1.99-0.86,2.75-1.23c0.39-0.19,0.79-0.37,1.19-0.53c2.3-0.89,9.28-3.53,9.41-3.63
		c0.17-0.02,0.4-0.15,0.74-0.19c0.49-0.16,1.22-0.35,2.2-0.67c8.03-2.56,17.01-5.09,26.93-7.6c9.93-2.42,18.63-4.48,25.97-6.09
		c7.41-1.62,11.28-2.45,11.78-2.52c0.42-0.06,1-0.15,1.57-0.32c0.65-0.18,1.22-0.35,1.69-0.68c0.47-0.24,0.67-0.61,0.69-1.05
		C653.88,187.53,653.38,187.01,652.38,186.65z"/>
</g>
<g>
	<path class="st1" d="M70.68,501.62v22.4H65.2v-15.78l-6.75,15.78h-3.36l-8.45-16.29v16.29h-3.01v-22.4h5.54l8.67,16.83l7.26-16.83
		H70.68z"/>
	<path class="st1" d="M92.92,518.36H81.52l-2.75,5.66H75l11.65-22.72h3.49l10.98,22.72h-5.54L92.92,518.36z M91.99,516.37
		l-4.67-10.02l-4.83,10.02H91.99z"/>
	<path class="st1" d="M120.16,527.38c1.01,0.7,2.35,1.06,4.02,1.06c0.64,0,1.41-0.08,2.3-0.22l-0.45,1.28
		c-0.96,0.26-2.02,0.38-3.17,0.38c-1.54,0-3.01-0.25-4.42-0.75c-1.41-0.5-2.6-1.19-3.57-2.08c-0.97-0.89-1.61-1.87-1.9-2.96
		c-3.09-0.49-5.49-1.72-7.18-3.7s-2.54-4.53-2.54-7.66c0-2.39,0.52-4.44,1.55-6.14c1.03-1.71,2.52-3.01,4.46-3.92
		c1.94-0.91,4.24-1.36,6.91-1.36c2.65,0,4.94,0.45,6.88,1.36c1.94,0.91,3.43,2.21,4.46,3.92c1.03,1.71,1.55,3.76,1.55,6.14
		c0,3.33-0.96,6-2.88,8c-1.92,2.01-4.6,3.18-8.03,3.52C118.48,525.63,119.15,526.68,120.16,527.38z M110.64,519.89
		c1.26,1.64,3.1,2.46,5.54,2.46c2.41,0,4.25-0.82,5.5-2.46c1.26-1.64,1.89-4.03,1.89-7.17c0-3.07-0.63-5.41-1.89-7.02
		c-1.26-1.61-3.09-2.42-5.5-2.42s-4.25,0.81-5.52,2.42c-1.27,1.61-1.9,3.95-1.9,7.02C108.76,515.86,109.38,518.25,110.64,519.89z"/>
	<path class="st1" d="M137.19,521.7c-1.65-1.76-2.48-4.1-2.48-7.02v-13.06h5.44v13.79c0,2.11,0.42,3.8,1.25,5.06s2.4,1.89,4.7,1.89
		c2.22,0,3.76-0.61,4.62-1.82c0.86-1.22,1.3-2.92,1.3-5.12v-13.79h5.44v13.06c0,2.92-0.82,5.26-2.46,7.02
		c-1.64,1.76-4.61,2.64-8.9,2.64C141.81,524.34,138.84,523.46,137.19,521.7z"/>
	<path class="st1" d="M164.79,501.62h5.44v22.4h-5.44V501.62z"/>
	<path class="st1" d="M177.55,501.62h5.44v20.42h13.76v1.98h-19.2V501.62z"/>
	<path class="st1" d="M201.14,501.62h5.44v20.42h13.76v1.98h-19.2V501.62z"/>
	<path class="st1" d="M240.75,518.36h-11.39l-2.75,5.66h-3.78l11.65-22.72h3.49l10.98,22.72h-5.54L240.75,518.36z M239.83,516.37
		l-4.67-10.02l-4.83,10.02H239.83z"/>
	<path class="st1" d="M258.91,522.95c-2-0.93-3.53-2.26-4.61-3.98c-1.08-1.73-1.62-3.77-1.62-6.11s0.54-4.38,1.62-6.11
		c1.08-1.73,2.62-3.06,4.62-4c2.01-0.94,4.37-1.41,7.1-1.41c2.13,0,4.02,0.31,5.66,0.93c1.64,0.62,2.97,1.5,3.97,2.64
		c1,1.14,1.61,2.5,1.82,4.08h-4.26c-0.36-1.83-1.16-3.24-2.38-4.21c-1.23-0.97-2.8-1.46-4.72-1.46c-2.5,0-4.44,0.83-5.84,2.5
		c-1.4,1.66-2.1,4-2.1,7.01c0,2.99,0.69,5.32,2.06,7.01c1.38,1.69,3.28,2.53,5.71,2.53c1.07,0,2.03-0.11,2.88-0.34
		c0.85-0.22,1.77-0.61,2.75-1.17V514h-7.68v-1.86h13.09v8.74c-1.13,1.07-2.69,1.91-4.69,2.53c-1.99,0.62-4.12,0.93-6.38,0.93
		C263.25,524.34,260.91,523.88,258.91,522.95z"/>
	<path class="st1" d="M283.06,501.62h20.7v1.98H288.5v7.42H302v1.98h-13.5v9.02h15.26v1.98h-20.7V501.62z"/>
	<path class="st1" d="M318.74,514.96h11.42v1.73h-11.42V514.96z"/>
	<path class="st1" d="M346.58,501.62h9.41c3.37,0,5.97,0.53,7.79,1.58c1.82,1.06,2.74,2.84,2.74,5.36c0,2.47-0.9,4.25-2.7,5.33
		s-4.41,1.62-7.82,1.62h-3.97v8.51h-5.44V501.62z M356.02,513.49c1.71,0,2.98-0.35,3.82-1.06c0.84-0.7,1.26-1.99,1.26-3.87
		c0-1.86-0.42-3.15-1.25-3.87c-0.83-0.72-2.11-1.09-3.84-1.09h-4v9.89H356.02z"/>
	<path class="st1" d="M371.06,501.62h20.7v1.98H376.5v7.42H390v1.98h-13.5v9.02h15.26v1.98h-20.7V501.62z"/>
	<path class="st1" d="M416.8,522.42c0.39,0.79,0.76,1.17,1.1,1.15v0.45h-5.31c-0.41-0.43-0.77-0.97-1.1-1.63
		c-0.33-0.66-0.68-1.49-1.04-2.5c-0.53-1.41-1.03-2.51-1.5-3.3s-1.08-1.33-1.82-1.63h-0.48h-4.74v9.06h-5.41v-22.4h10.14
		c3.35,0,5.94,0.5,7.76,1.5c1.82,1,2.74,2.71,2.74,5.12c0,3.26-1.76,5.32-5.28,6.18c0.73,0.45,1.36,1.04,1.9,1.78
		c0.54,0.74,1.06,1.69,1.55,2.86C415.91,520.51,416.41,521.63,416.8,522.42z M401.9,512.98h4.77c1.62,0,2.87-0.33,3.76-0.99
		c0.88-0.66,1.33-1.91,1.33-3.74c0-1.79-0.44-3.01-1.33-3.66c-0.89-0.65-2.14-0.98-3.76-0.98h-4.77V512.98z"/>
	<path class="st1" d="M442.43,522.42c0.39,0.79,0.76,1.17,1.1,1.15v0.45h-5.31c-0.41-0.43-0.77-0.97-1.1-1.63
		c-0.33-0.66-0.68-1.49-1.04-2.5c-0.53-1.41-1.03-2.51-1.5-3.3s-1.08-1.33-1.82-1.63h-0.48h-4.74v9.06h-5.41v-22.4h10.14
		c3.35,0,5.94,0.5,7.76,1.5c1.82,1,2.74,2.71,2.74,5.12c0,3.26-1.76,5.32-5.28,6.18c0.73,0.45,1.36,1.04,1.9,1.78
		c0.54,0.74,1.06,1.69,1.55,2.86C441.54,520.51,442.04,521.63,442.43,522.42z M427.54,512.98h4.77c1.62,0,2.87-0.33,3.76-0.99
		c0.88-0.66,1.33-1.91,1.33-3.74c0-1.79-0.44-3.01-1.33-3.66c-0.89-0.65-2.14-0.98-3.76-0.98h-4.77V512.98z"/>
	<path class="st1" d="M450.24,521.7c-1.65-1.76-2.48-4.1-2.48-7.02v-13.06h5.44v13.79c0,2.11,0.42,3.8,1.25,5.06s2.4,1.89,4.7,1.89
		c2.22,0,3.76-0.61,4.62-1.82c0.86-1.22,1.3-2.92,1.3-5.12v-13.79h5.44v13.06c0,2.92-0.82,5.26-2.46,7.02
		c-1.64,1.76-4.61,2.64-8.9,2.64C454.86,524.34,451.89,523.46,450.24,521.7z"/>
	<path class="st1" d="M493.06,527.38c1.01,0.7,2.35,1.06,4.02,1.06c0.64,0,1.41-0.08,2.3-0.22l-0.45,1.28
		c-0.96,0.26-2.02,0.38-3.17,0.38c-1.54,0-3.01-0.25-4.42-0.75c-1.41-0.5-2.6-1.19-3.57-2.08c-0.97-0.89-1.61-1.87-1.9-2.96
		c-3.09-0.49-5.49-1.72-7.18-3.7s-2.54-4.53-2.54-7.66c0-2.39,0.52-4.44,1.55-6.14c1.03-1.71,2.52-3.01,4.46-3.92
		c1.94-0.91,4.24-1.36,6.91-1.36c2.65,0,4.94,0.45,6.88,1.36c1.94,0.91,3.43,2.21,4.46,3.92c1.03,1.71,1.55,3.76,1.55,6.14
		c0,3.33-0.96,6-2.88,8c-1.92,2.01-4.6,3.18-8.03,3.52C491.38,525.63,492.04,526.68,493.06,527.38z M483.54,519.89
		c1.26,1.64,3.1,2.46,5.54,2.46c2.41,0,4.25-0.82,5.5-2.46c1.26-1.64,1.89-4.03,1.89-7.17c0-3.07-0.63-5.41-1.89-7.02
		c-1.26-1.61-3.09-2.42-5.5-2.42s-4.25,0.81-5.52,2.42c-1.27,1.61-1.9,3.95-1.9,7.02C481.65,515.86,482.28,518.25,483.54,519.89z"/>
	<path class="st1" d="M510.08,521.7c-1.65-1.76-2.48-4.1-2.48-7.02v-13.06h5.44v13.79c0,2.11,0.42,3.8,1.25,5.06s2.4,1.89,4.7,1.89
		c2.22,0,3.76-0.61,4.62-1.82c0.86-1.22,1.3-2.92,1.3-5.12v-13.79h5.44v13.06c0,2.92-0.82,5.26-2.46,7.02
		c-1.64,1.76-4.61,2.64-8.9,2.64C514.7,524.34,511.73,523.46,510.08,521.7z"/>
	<path class="st1" d="M536.56,501.62h20.7v1.98H542v7.42h13.5v1.98H542v9.02h15.26v1.98h-20.7V501.62z"/>
	<path class="st1" d="M572.24,514.96h11.42v1.73h-11.42V514.96z"/>
	<path class="st1" d="M602.8,521.36c-2.18-1.98-3.26-4.86-3.26-8.64c0-3.71,1.08-6.54,3.25-8.5c2.17-1.95,5.31-2.93,9.42-2.93
		c3.56,0,6.35,0.66,8.37,1.97c2.02,1.31,3.18,3.22,3.5,5.71h-4.26c-0.34-1.86-1.15-3.27-2.43-4.24c-1.28-0.97-2.96-1.46-5.02-1.46
		c-2.39,0-4.21,0.81-5.46,2.42c-1.25,1.61-1.87,3.95-1.87,7.02c0,3.14,0.63,5.53,1.89,7.17c1.26,1.64,3.08,2.46,5.47,2.46
		c2.07,0,3.74-0.49,5.01-1.46c1.27-0.97,2.07-2.38,2.42-4.24h4.26c-0.32,2.5-1.49,4.4-3.5,5.71c-2.02,1.31-4.78,1.97-8.3,1.97
		C608.13,524.34,604.98,523.35,602.8,521.36z"/>
	<path class="st1" d="M649.44,522.42c0.39,0.79,0.76,1.17,1.1,1.15v0.45h-5.31c-0.41-0.43-0.77-0.97-1.1-1.63
		c-0.33-0.66-0.68-1.49-1.04-2.5c-0.53-1.41-1.03-2.51-1.5-3.3s-1.08-1.33-1.82-1.63h-0.48h-4.74v9.06h-5.41v-22.4h10.14
		c3.35,0,5.94,0.5,7.76,1.5c1.82,1,2.74,2.71,2.74,5.12c0,3.26-1.76,5.32-5.28,6.18c0.73,0.45,1.36,1.04,1.9,1.78
		c0.54,0.74,1.06,1.69,1.55,2.86C648.55,520.51,649.04,521.63,649.44,522.42z M634.54,512.98h4.77c1.62,0,2.87-0.33,3.76-0.99
		c0.88-0.66,1.33-1.91,1.33-3.74c0-1.79-0.44-3.01-1.33-3.66c-0.89-0.65-2.14-0.98-3.76-0.98h-4.77V512.98z"/>
	<path class="st1" d="M654.77,501.62h20.7v1.98h-15.26v7.42h13.5v1.98h-13.5v9.02h15.26v1.98h-20.7V501.62z M669.1,494.26
		c0.32-0.36,0.66-0.62,1.02-0.78c0.36-0.16,0.79-0.24,1.28-0.24c0.43,0,0.77,0.1,1.02,0.29c0.26,0.19,0.38,0.44,0.38,0.74
		c0,0.49-0.45,1.04-1.34,1.66l-4.93,3.46h-1.76L669.1,494.26z"/>
	<path class="st1" d="M696.24,518.36h-11.39l-2.75,5.66h-3.78l11.65-22.72h3.49l10.98,22.72h-5.54L696.24,518.36z M695.31,516.37
		l-4.67-10.02l-4.83,10.02H695.31z"/>
	<path class="st1" d="M712.75,503.6h-9.28v-1.98h23.97v1.98h-9.28v20.42h-5.41V503.6z"/>
	<path class="st1" d="M732.69,501.62h5.44v22.4h-5.44V501.62z"/>
	<path class="st1" d="M750.89,522.96c-1.94-0.92-3.43-2.25-4.46-3.98c-1.03-1.74-1.55-3.82-1.55-6.26c0-2.39,0.52-4.44,1.55-6.14
		c1.03-1.71,2.52-3.01,4.46-3.92c1.94-0.91,4.24-1.36,6.91-1.36c2.65,0,4.94,0.45,6.88,1.36c1.94,0.91,3.43,2.21,4.46,3.92
		c1.03,1.71,1.55,3.76,1.55,6.14c0,2.43-0.52,4.52-1.55,6.26c-1.04,1.74-2.52,3.07-4.45,3.98s-4.23,1.38-6.9,1.38
		C755.14,524.34,752.84,523.88,750.89,522.96z M763.31,519.89c1.26-1.64,1.89-4.03,1.89-7.17c0-3.07-0.63-5.41-1.89-7.02
		c-1.26-1.61-3.09-2.42-5.5-2.42s-4.25,0.81-5.52,2.42c-1.27,1.61-1.9,3.95-1.9,7.02c0,3.14,0.63,5.53,1.89,7.17
		c1.26,1.64,3.1,2.46,5.54,2.46C760.22,522.36,762.05,521.53,763.31,519.89z"/>
	<path class="st1" d="M776.33,501.62h5.34l11.46,15.14v-15.14h5.12v22.4h-3.65l-13.15-17.6v17.6h-5.12V501.62z"/>
</g>
</svg>
