<svg id="ab0d88da-e1cf-41f6-a23f-f4784f65b4c1" data-name="Calque 1" xmlns="http://www.w3.org/2000/svg" viewBox="0 0 841.89 595.28"><defs><style>.e81ee865-5f1e-4274-a118-2100a1ba892d{fill:#0f0d0d;}</style></defs><title>HOLYFX-LOGO</title><path class="e81ee865-5f1e-4274-a118-2100a1ba892d" d="M287.08,303.52c-.72,0-1.21-.63-2.13-1.6l-.74-.87c-.09,0-.09,0-.17-.1a22.83,22.83,0,0,1-1.84-1.85c-5.6-6.83-34.88-11.28-42.31-11.85a4.94,4.94,0,0,0-1.62,0l-.55.14.05.54a11.88,11.88,0,0,0,0,1.63c.1,1.09.16,2.53.16,3.7-.08,3.42,0,6.94.2,10.2,0,1.71.17,3.53.21,5.33.23,2.89.36,5.79.4,8.76a85.67,85.67,0,0,1-.65,11.84c-1.38,8.46-6.38,12.57-14.7,11.92l-.81-.06a65.6,65.6,0,0,1-13.89-3.34c-5.44-1.86-35.87-14.67-58.11-24.06-14.31-6-24.69-10.38-25.66-10.64a6.91,6.91,0,0,0-2-.52,1.39,1.39,0,0,0-.72.12l-.75.31.24.38a6.55,6.55,0,0,0-.34,2c-.19,4.85-.31,9.8-.41,14.56v.18c-.1,3.59-.22,7.37-.32,11.05l-.06.72c-.11,3.68-.23,7.55-1.41,11.15a3.39,3.39,0,0,1-1.69,2.12,2.79,2.79,0,0,1-1.19.18,2.68,2.68,0,0,1-.88-.25,3.48,3.48,0,0,1-2-2.59,52.51,52.51,0,0,1-.23-6.32c.15-5.39.4-10.86.54-16.17l0-.35c.13-4.14.18-8.28.33-12.42.08-2.24.08-4.49,0-6.21a2.85,2.85,0,0,0-1.77-2.74c-.69-.33-1.38-.74-2.07-1.06a37.49,37.49,0,0,1-5.62-3.06c-1.88-1.31-2.92-3-2.68-4.89a5.31,5.31,0,0,1,3.58-4.31,45.82,45.82,0,0,1,5.17-1.67l2.39-.63a2.13,2.13,0,0,0,1.59-1.94c.26-2.15.42-4.21.47-6.09,1.11-29.28,3.07-60.21,6.19-94.55,2.21-25,5.14-49.87,8.62-73.91a91.26,91.26,0,0,1,6.29-22.84,2.54,2.54,0,0,1,1.57-1.59,1.63,1.63,0,0,1,.64-.13,2.48,2.48,0,0,1,1,.44,2.43,2.43,0,0,1,1,2.42l-.23,1.79c-.63,4.71-1.28,9.62-2.11,14.51-3.42,20.81-5.72,42.16-7.59,60.48-.41,4-.64,8.23-1,12.27l-.43,5.55v.09c-3.47,30.8-5.08,61.84-6.65,93.6v1.17c-.24,4.31-.29,6,.31,6.61v.09l.17.1a1.6,1.6,0,0,0,.79.24,32.27,32.27,0,0,0,4.62-.36h.09c.73,0,1.63-.14,2.54-.26,18-1.66,36.26-1.77,52.48-1.86,10.28-.1,21.32.4,34.66,1.43l6,.47.36,0a30.52,30.52,0,0,0,4.23.06,1,1,0,0,0,1-1c.27-3.4.29-6,.3-8.44a697.56,697.56,0,0,1,3.57-78.27c1.76-16.88,3.9-34,6-50.51l.7-5.44c1.21-9.82,2.79-19.78,4.17-29.4v-.09l.3-1.51c.59-4.19,1.45-8.18,2.26-11.62l0-.54V93.7a3.31,3.31,0,0,1,1.09-2.53,2.43,2.43,0,0,1,1.47-.33c.18,0,.35.11.62.13,1.85.51,2,2.23,1.76,3.93V95l0,.44,0,.27c-.2,3.85-.41,7.71-.9,11.55-1.09,9.37-2.27,18.83-3.44,28l-.05.62c-1.12,8.65-2.33,18.47-3.44,28a880.28,880.28,0,0,0-7,106c0,2.7.12,5.41.27,8l.05.55a7.41,7.41,0,0,0,.58,3c.42.39,1.12.63,3.07,1.05,3.19.7,6.38,1.3,9.58,1.92s6.39,1.22,9.67,1.92A145.79,145.79,0,0,1,283,293l.34.2a18.6,18.6,0,0,1,6.13,3.36,4.19,4.19,0,0,1,1.36,3.35,3.94,3.94,0,0,1-2,2.9A3.16,3.16,0,0,1,287.08,303.52ZM114.81,289.05l-1,.19s-2.39.62-3.86.87a1.15,1.15,0,0,0-.88.93,1,1,0,0,0,.54,1.21l3.72,1.91,1,.53.09-1.08.28-3.58Zm116.41,32c-.17-9.38-.5-19-.94-29.62a34.12,34.12,0,0,1,0-3.78l.06-.72-.72-.05-.44,0c-8.33-.64-82.53-3.17-104.9,1.84-.28.07-.54.05-.82.12l-.36,0-.27.07-.64,0,0,.54c0,.18,0,.36-.12.44V290a37.49,37.49,0,0,0-.17,4.58c-.07.8,0,1.53-.08,2.15l0,.45.44.22c.6.32,75.4,34.5,100.3,36.44l.27,0c5.46.33,7.18-.88,7.93-6A34.65,34.65,0,0,0,231.22,321.07Z"/><path class="e81ee865-5f1e-4274-a118-2100a1ba892d" d="M488.15,284.55c.1,1.56-2.45,4.7-7.45,9.49-.68.59-1.27,1.28-1.95,1.77a29.52,29.52,0,0,1-14.1,6.95A28.47,28.47,0,0,1,449,301.29a40.62,40.62,0,0,1-10.76-6.07c-.1,0-.3-.19-.49-.4s-.4-.29-.6-.39l-1.27-1.17a5.42,5.42,0,0,1-.49-.39c-1.66-1.57-3.22-3.23-4.7-4.9a97.76,97.76,0,0,1-16.53,10.58,75.64,75.64,0,0,1-24.28,7.63,38.72,38.72,0,0,1-5.78.39,51,51,0,0,1-17-3,63.65,63.65,0,0,1-14.88-7.83l-5.68-4.6c-2.34-2.35-4.7-4.61-6.85-7.05v.2c-.09-.1-.19-.3-.39-.39a4.2,4.2,0,0,0-.58-.69,123.56,123.56,0,0,1-12.44,3.91c-1.76.49-3.62.88-5.48,1.27s-3.43.6-4.6.79a45.17,45.17,0,0,1-3.42,10.08,44.69,44.69,0,0,1-7.94,12.14c-3,3-5.77,4.6-8.41,4.6-.39,0-.79-.1-1.18-.1-3-.68-5.58-3.43-7.53-8.52a38.31,38.31,0,0,1-2.85-12.53c-.19-3.52-.29-6.56-.39-9.1l-.19-.29a11.93,11.93,0,0,1-3.13-3.63c-1.47-2.83-1.08-6.46,1.08-10.66a32.8,32.8,0,0,1,9-10.77c6.65-4.9,12.62-5.68,18.11-2.15a16.94,16.94,0,0,1,6.85,10.08,43.5,43.5,0,0,1,.39,16.64c5.09-.59,8.52-1,10.38-1.37a6.52,6.52,0,0,1,1.27-.19c2.54-.79,5.29-1.67,8.32-2.75-.39-.39-.69-.88-1.08-1.27a.1.1,0,0,0-.1-.1h.1c-10.56-12.82-17.72-26.72-21.33-41.8-4.9-20.16-4.9-41.89-.3-65.09a151.23,151.23,0,0,1,24-58.73,81.4,81.4,0,0,1,29.84-27.22c11.56-5.18,21.35-6.06,29.28-2.63S410.72,95,414.83,107l.59,1.77h-.3c2,7.73,1.69,16,1.88,23.87a162.52,162.52,0,0,1-1.06,23.93,195.24,195.24,0,0,1-11.84,48.84C398,221.25,391,236.68,380.27,249.8a134.42,134.42,0,0,1-35,30.24,110,110,0,0,0,10.87,10.58l.39.39a57.42,57.42,0,0,0,12.63,7.24,41.86,41.86,0,0,0,20.16,3.14,69.62,69.62,0,0,0,22.22-7.25,114.08,114.08,0,0,0,16-9.88,85.34,85.34,0,0,1-16.94-36.42,130.14,130.14,0,0,1-.49-44.05,116.73,116.73,0,0,1,14.68-44.53A56.38,56.38,0,0,1,444.1,138h.1c7.44-4,13.9-5,19.28-2.93,5.78,2.34,10.27,8.12,13.41,17.52v.1a.1.1,0,0,1,.1.1l.39,1.46h-.2a86,86,0,0,1,2.64,17.23,154.26,154.26,0,0,1,0,19,166.51,166.51,0,0,1-6.75,36.91,123.62,123.62,0,0,1-15.95,33.18,91,91,0,0,1-21.93,23,75.74,75.74,0,0,0,7.34,7.44,35,35,0,0,0,8.72,5.39,26.43,26.43,0,0,0,13.4,1.85,20.07,20.07,0,0,0,4.22-1A36.68,36.68,0,0,0,480,289.15c3.53-3.72,5-5.68,4.5-6a2.13,2.13,0,0,1,1-1.08,1.88,1.88,0,0,1,1.47,0,2,2,0,0,1,1.18,1A2,2,0,0,1,488.15,284.55ZM312,274c-.09-4.31-1.17-7.44-3.12-9.4-3-2.55-6.85-2.65-11.56-.29a14.46,14.46,0,0,0-4.21,3.13c-2.73,2.94-4.3,5-4.69,6.26a16.78,16.78,0,0,0-1.38,3.33,25.34,25.34,0,0,1,1.58-3.43c1.85-2.93,4-4.4,6.65-4.5a4.79,4.79,0,0,1,4.11,2.35l.19.39-.39.2a4.78,4.78,0,0,1-1.17.2,4.2,4.2,0,0,0-1.86.68,5.17,5.17,0,0,0-1.76,2.44,32.93,32.93,0,0,0-2,6.46c1.77,1.09,4.7,2,8.72,2.65a39,39,0,0,0,10.07.78A43.67,43.67,0,0,0,312,274Zm-2.15,16.15a42.17,42.17,0,0,1-9.1.49,29,29,0,0,1-9-1.76,24.61,24.61,0,0,0-.29,4.2c.1,1.86.29,4.31.78,7.54a29.36,29.36,0,0,0,1.77,5.77c1,2.16,2,3.34,3.23,3.53s2.34-.39,3.72-1.86C305.39,303.64,308.33,297.67,309.89,290.13ZM376,246.28c10.18-12.73,16.78-27.78,22.55-43a184.11,184.11,0,0,0,11.26-47.38A158.66,158.66,0,0,0,411,132.38c-.29-8.13-.5-15.9-2.55-23.54l-.3-1.17a53.34,53.34,0,0,0-2.06-5.77C400.25,88.29,390.26,84.57,376,90.64A53.41,53.41,0,0,0,360.11,101a95.53,95.53,0,0,0-18.4,22.21q-27.46,47.13-21.54,101.21,3.52,29.52,21.44,51.49A131.52,131.52,0,0,0,376,246.28Zm77.43,11.45a115.26,115.26,0,0,0,15.07-31.92,148.08,148.08,0,0,0,6.36-53.93A79.39,79.39,0,0,0,472.09,155l-.39-1.76c-.49-1.36-1-2.74-1.47-4.21-2.06-5.09-4.7-8.32-7.93-9.49-3-1.17-6.75-.58-11.05,1.66A36.36,36.36,0,0,0,441,149.17a71.21,71.21,0,0,0-11.74,17q-17.34,35.84-12,76.26c2,14.29,7,26.81,15.08,37.29l.09-.1.3.39A88.73,88.73,0,0,0,453.4,257.73Z"/><path class="e81ee865-5f1e-4274-a118-2100a1ba892d" d="M538.49,312.53a6.51,6.51,0,0,0,.43-1.19,5,5,0,0,0-.42-3.39,5.83,5.83,0,0,0-2.63-2.68,22.57,22.57,0,0,0-8-2.07l-.17,0h-.89l1.15-3c3-8,10.88-29.39,11.66-37.87.3-3.3-.95-4.2-2.16-5.07-1.57-1.11-3.61-1.85-4.52-.92-1.68,1.8-3.45,3.73-5.27,5.73-5.37,5.86-11.46,12.5-16.77,17.37-5.81,5.31-12.79,11.33-20.51,15.66l-.28.15a11,11,0,0,1-3.07,1.34l-.85.25,0-.89c.21-3.48,1.08-6.35,3.21-10.56,3.11-6.11,8.09-13.71,12.09-19.83l2-3c.62-1,.86-1.64.73-2s-.56-.6-1.42-.89a3.52,3.52,0,0,0-4,.86,133.58,133.58,0,0,0-12.31,17.44c-2.51,4.22-5.06,8.8-6.27,14.24-.89,4-.21,6.51,2.29,8.26s5.3,1.62,9.43-.39c7.47-3.66,14.33-9.42,20.71-15,1.26-1.12,3.52-3.35,5.51-5.32,1.31-1.3,2.53-2.51,3.35-3.28,0,0,4.16-3.79,7.51-6.79l1.81-1.62-.8,2.29c-.08.23-.27.92-.57,1.95-1.51,5.38-5.55,19.63-9.8,28a4.91,4.91,0,0,1-4.41,3.15c-23.26,2.11-45.18,9.8-59.48,15.88-16.16,6.87-29.44,15.24-40.61,25.57-7,6.53-12.14,13.11-15.6,20.15a41.43,41.43,0,0,0-4.5,15.81c-.57,9.78,4.23,17.69,13.17,21.77h0l.39.17c6.61,2.9,13.83,3.31,22,1.26,34.9-9.17,57.27-39.06,69.29-55.11l.92-1.23a220.93,220.93,0,0,0,13.67-20.71c2-3.44,4.11-7.11,6.35-11.21.36-.66,1-1.69,1.8-2.88s1.72-2.65,2.52-4l.17-.27.31,0c1.95-.2,6.57-.56,7.73.44a2.27,2.27,0,0,1,.51,2.7,4.89,4.89,0,0,1-.71,1.15,3.5,3.5,0,0,1-.27.28c-.19.2-.31.33-.31.44s0,.13.15.34a3.17,3.17,0,0,0,1.61,1.34,2.22,2.22,0,0,0,2.2-.37A7,7,0,0,0,538.49,312.53Zm-23.09-2.26c-21.69,39.55-44.21,66-68.84,80.82-2.54,1.49-4.92,2.74-7.26,3.82A58.45,58.45,0,0,1,424,399.63a44.63,44.63,0,0,1-7,.58,30.64,30.64,0,0,1-6-.53,10.53,10.53,0,0,1-7.38-5.53c-2-3.65-2.71-7.88-2.09-12.94.67-5.61,2.77-11.15,6.62-17.43,4.89-8,11.59-14.93,21.7-22.4,11.24-8.29,24.08-15.05,40.41-21.27,14.72-5.62,30.85-8.88,41.78-10.62a14.44,14.44,0,0,1,1.51-.17l.77-.08,1.53.25Z"/><path class="e81ee865-5f1e-4274-a118-2100a1ba892d" d="M575.63,377.66a216.58,216.58,0,0,1-167.12,82.57c-32.31.61-65.27-5.56-94.45-20.07-29-14.6-54.78-35.66-72.93-62l.76-.62c22.36,22.46,47.89,41.23,76.41,53.69,28.28,12.64,58.9,20.59,90.2,21.09,62.57,1.18,125.18-27.18,166.37-75.33Z"/><path class="e81ee865-5f1e-4274-a118-2100a1ba892d" d="M726.09,78.77a47.42,47.42,0,0,0-12.77-1.23c-16.14.7-30.5,3.11-43.17,7.12q-37.75,10.23-80.88,29.6c-3.41,1.62-6.84,3.16-10.18,4.67-1.33.62-2.65,1.22-3.94,1.83a92.09,92.09,0,0,1-10.3,5.1,7.76,7.76,0,0,1-.91.44l-1,.49c-2.86,1.36-5.72,2.73-8.48,4.16l-.78.45a223,223,0,0,0-24.89,14.44,29.05,29.05,0,0,0-7.6,6.66,8.39,8.39,0,0,0-1.48,3.71,6.29,6.29,0,0,0,.5,2.81,5.65,5.65,0,0,0,5.94,3.29,20.86,20.86,0,0,0,2.14-.41h.09a2.33,2.33,0,0,1,.73-.2l.25,0a3.27,3.27,0,0,0,1.51-1.33,2.88,2.88,0,0,0-1.77-4.42c.16-.11.3-.3.45-.41,1.45-1.15,3.21-2.43,5.21-3.84a274,274,0,0,1,26.17-15l3-1.64c.71-.36,1.17-.68,1.56-.91a5.41,5.41,0,0,1,1-.58c0,.11,9.33-4.86,9.87-5.13a18.06,18.06,0,0,0,1.9-.88,7.77,7.77,0,0,0,1-.48,1.18,1.18,0,0,0,.55-.26q40.85-19.48,68-29.28C665.82,91,680.24,86.73,690.9,84.62s18.6-3,23.74-2.77,8.35.71,9.71,1.27a7.25,7.25,0,0,0,.8.22A16,16,0,0,1,732.84,87,11,11,0,0,1,736,92.34a15.63,15.63,0,0,1,.25,5.67,31.44,31.44,0,0,1-1.11,4.5c-.5,1.18-.76,1.73-.76,1.73-.12.35-.31.81-.56,1.36a11.15,11.15,0,0,0-1,2.36,1.77,1.77,0,0,0,0,1.78,1.25,1.25,0,0,0,.84.47,4.1,4.1,0,0,0,1-.23h.08a3.81,3.81,0,0,0,2.19-1.86,25.66,25.66,0,0,0,2.94-10.47Q740.79,82.45,726.09,78.77Z"/><path class="e81ee865-5f1e-4274-a118-2100a1ba892d" d="M628.45,318.23l3.79-4.87,3.64,2.42c7,4.53,10.8,6.71,20,6.71a45.29,45.29,0,0,0,20.56-5c10.52-5.65,19-16.38,18.37-18.86-.06-.22-.62-.24-.86-.24s-2,1.33-4.09,4.2c-7.86,10.18-21,17-32.68,17-6.84,0-11-1.77-16.92-7.29C637.93,310,637,309,637,307.7a3.05,3.05,0,0,1,1.09-2.13l1.84-2.23c7-8.47,15.63-18.91,16.71-21a2.86,2.86,0,0,0-1.6-.42,6.72,6.72,0,0,0-2.42.73c-.67.23-3.43,2.49-10,9.65-1.81,1.82-3.46,3.53-4.86,5-4.07,4.22-4.4,4.54-5.23,4.54-2.27,0-10.88-19.77-11.66-22.12-2.55-5.93-3.57-6.43-6.07-6.43-1.5,0-2.43.23-2.79.68-.48.62-.42,2.11.2,4.56a115.65,115.65,0,0,0,11.07,23.37c.84,1.27,3.25,5.17,3.25,6.38s-3.22,5.3-4.2,6.49c-2.64,3.08-7.55,8.79-7.24,10.55,0,.1.06.38.8.81l.24.18a3.48,3.48,0,0,0,2.12.95C620.76,327.24,623.77,324.07,628.45,318.23Z"/><path class="e81ee865-5f1e-4274-a118-2100a1ba892d" d="M570.38,121.29c3.6,16.77,7.6,33.42,10.63,50.39a401.74,401.74,0,0,1,5.69,53.24c1.53,35.19,3.83,75-7,107.21-1.06,3.14,1.17,2,1.92-.22,10.89-32.41,11.64-71.7,10.18-107.19a407.36,407.36,0,0,0-5.47-53.38c-3.06-17.58-7.21-34.8-10.94-52.13-.55-2.6-5.6-.56-5,2.08Z"/><path class="e81ee865-5f1e-4274-a118-2100a1ba892d" d="M579.83,335.17a1.45,1.45,0,0,1-1.09-.48c-.68-.78-.37-2-.08-2.92,10.29-30.61,8.61-68.71,7.13-102.33l-.2-4.47a403.44,403.44,0,0,0-5.67-53.09c-2.15-12-4.83-24.1-7.42-35.77-1.08-4.86-2.16-9.72-3.21-14.58-.47-2.22,1.51-4.08,3.61-4.53,1.82-.4,3.26.4,3.6,2q1.57,7.31,3.2,14.58c2.72,12.26,5.54,24.93,7.75,37.6a407.07,407.07,0,0,1,5.48,53.53c1.32,32,1.34,73.13-10.24,107.58a4.19,4.19,0,0,1-2.55,2.88A1.63,1.63,0,0,1,579.83,335.17Zm-6-216.06a2.47,2.47,0,0,0-.43,0c-1,.22-2.08,1.1-1.91,1.9h0q1.57,7.29,3.2,14.56c2.6,11.7,5.28,23.79,7.44,35.87a406.29,406.29,0,0,1,5.71,53.38l.2,4.47c1.17,26.51,2.46,55.78-2.06,82.14,6-29.25,5.82-61,4.76-86.71a404.55,404.55,0,0,0-5.45-53.24c-2.2-12.62-5-25.26-7.72-37.49-1.08-4.87-2.16-9.73-3.21-14.6C574.28,119.22,574.11,119.11,573.8,119.11Z"/><path class="e81ee865-5f1e-4274-a118-2100a1ba892d" d="M652.38,186.65a9.79,9.79,0,0,0-2.86-.42,22.31,22.31,0,0,0-4.73.2c-4,.68-7.64,1.22-10.95,1.89-15,2.92-31.45,6.9-49.4,12-.87.23-1.59.32-2.07.5-1.09.43-2.47.78-3.21,1-2.14.77-5.06,1.74-7.11,2.52-.41.15-.8.33-1.2.52a9.55,9.55,0,0,1-1.45.6l-1.18.47c-1.21.44-2.13.83-3.17,1.24a48.63,48.63,0,0,0-8.36,3.8,4.08,4.08,0,0,0-2.06,2.18,3.62,3.62,0,0,0,0,2.47,3,3,0,0,0,1.41,1.49,3.33,3.33,0,0,0,2.58.21c1.06-.33,2.51-.88,4.43-1.68s3.67-1.67,5.45-2.56c.23-.12.47-.23.71-.33,1.08-.46,2-.86,2.75-1.23.39-.19.78-.37,1.19-.53,2.3-.89,9.28-3.53,9.41-3.62s.41-.15.74-.2,1.22-.35,2.2-.67q12-3.82,26.93-7.59c9.93-2.42,18.63-4.48,26-6.09s11.28-2.45,11.78-2.52a10.84,10.84,0,0,0,1.56-.32,5.2,5.2,0,0,0,1.69-.68,1.16,1.16,0,0,0,.7-1A2.36,2.36,0,0,0,652.38,186.65Z"/><path class="e81ee865-5f1e-4274-a118-2100a1ba892d" d="M145.65,497.26V527.1h-5.37V503.31L129.53,527.1h-2.85l-12.07-24.17V527.1H111.5V497.26h5.84l11.81,23.83,10.79-23.83Z"/><path class="e81ee865-5f1e-4274-a118-2100a1ba892d" d="M189.43,519.43H172.89l-3.79,7.67h-3.67L181,496.83h3.11l14.62,30.27H193Zm-1.06-2.26-7-14.92L174,517.17Z"/><path class="e81ee865-5f1e-4274-a118-2100a1ba892d" d="M228.44,513l-4.65,4.64v9.51h-5.37V497.26h5.37V512.9l15.78-15.64h4.6l-12.06,12.06,13.43,17.78h-6.36Z"/><path class="e81ee865-5f1e-4274-a118-2100a1ba892d" d="M265.4,497.26h26.05v2.26H270.77V510h18.29v2.22H270.77v12.62h20.68v2.26H265.4Z"/><path class="e81ee865-5f1e-4274-a118-2100a1ba892d" d="M343.14,524.16q-3.3-3.37-3.3-9.47V497.26h5.37v18.41c0,3.05.69,5.4,2.07,7.08s3.7,2.52,7,2.52,5.51-.83,6.9-2.48,2.09-4,2.09-7.12V497.26h5.37v17.43q0,6.1-3.28,9.47t-11.08,3.37Q346.45,527.53,343.14,524.16Z"/><path class="e81ee865-5f1e-4274-a118-2100a1ba892d" d="M391.08,497.26H402.8q6.31,0,9.79,2.21c2.32,1.48,3.47,3.81,3.47,7q0,9.16-13.26,9.16h-6.35V527.1h-5.37Zm11.77,16.11a9.1,9.1,0,0,0,5.86-1.62q2-1.62,2-5.28t-2-5.31c-1.32-1.1-3.28-1.64-5.86-1.64h-6.4v13.85Z"/><path class="e81ee865-5f1e-4274-a118-2100a1ba892d" d="M485.51,519.43H469l-3.79,7.67h-3.67L477,496.83h3.11l14.62,30.27h-5.67Zm-1.07-2.26-6.94-14.92-7.38,14.92Z"/><path class="e81ee865-5f1e-4274-a118-2100a1ba892d" d="M539.91,524.84a3.7,3.7,0,0,0,1.58,1.83v.43H536a16.94,16.94,0,0,1-2.73-5.29A24.91,24.91,0,0,0,531,517a5.11,5.11,0,0,0-2.88-2.22h-8.27V527.1H514.5V497.26h12.75q13.21,0,13.21,8.78,0,6.52-7.37,8.23a7.73,7.73,0,0,1,2.75,2.32,19.08,19.08,0,0,1,2.19,4.12Q539.1,523.31,539.91,524.84Zm-20-12.23h7.42a9.62,9.62,0,0,0,5.8-1.52q2-1.51,2-5t-2-5a9.62,9.62,0,0,0-5.8-1.51h-7.42Z"/><path class="e81ee865-5f1e-4274-a118-2100a1ba892d" d="M571.07,499.52H558.54v-2.26h30.4v2.26H576.45V527.1h-5.38Z"/><path class="e81ee865-5f1e-4274-a118-2100a1ba892d" d="M610.3,497.26h5.37V527.1H610.3Z"/><path class="e81ee865-5f1e-4274-a118-2100a1ba892d" d="M643.29,525a9.07,9.07,0,0,1-4.18-7.25h4.48q.3,3.93,2.77,5.73t7.29,1.82a11.39,11.39,0,0,0,6.33-1.45,4.78,4.78,0,0,0,2.16-4.22,4.51,4.51,0,0,0-.81-2.73,6.75,6.75,0,0,0-2.86-2,31.33,31.33,0,0,0-5.84-1.65,32,32,0,0,1-9.36-3.11,6,6,0,0,1-3.39-5.54,6.2,6.2,0,0,1,3.73-5.88,21.55,21.55,0,0,1,9.66-1.88q6.22,0,9.61,2.15a7.94,7.94,0,0,1,3.86,5.95h-4.43a6.43,6.43,0,0,0-2.94-4.48,12.71,12.71,0,0,0-6.4-1.36,10.58,10.58,0,0,0-5.75,1.28,3.91,3.91,0,0,0-2,3.41A3.49,3.49,0,0,0,646,506a6.36,6.36,0,0,0,2.68,1.68,37.53,37.53,0,0,0,5.59,1.53,48.72,48.72,0,0,1,7.46,2.09,10.22,10.22,0,0,1,4.31,3,7.26,7.26,0,0,1,1.49,4.73,7,7,0,0,1-3.71,6.31q-3.7,2.25-10.06,2.26Q647.13,527.53,643.29,525Z"/><path class="e81ee865-5f1e-4274-a118-2100a1ba892d" d="M699.06,499.52H686.52v-2.26h30.4v2.26H704.43V527.1h-5.37Z"/></svg>