<svg id="afeb311b-6b88-4aea-b470-0151d1e4f4dc" data-name="Calque 1" xmlns="http://www.w3.org/2000/svg" viewBox="0 0 841.89 595.28"><defs><style>.ba3f5dc1-569a-4c20-a22d-32592de0ebfb{fill:#fff;}</style></defs><title>HOLYFX-LOGO</title><path class="ba3f5dc1-569a-4c20-a22d-32592de0ebfb" d="M267,337.47c-.82-.06-1.39-.73-2.44-1.84l-.86-1c-.1,0-.1,0-.19-.12a28,28,0,0,1-2.12-2.13c-6.44-7.86-40.12-13-48.67-13.63a5.76,5.76,0,0,0-1.86,0l-.63.15.06.63a14,14,0,0,0,.06,1.87c.11,1.25.18,2.92.18,4.26-.1,3.93,0,8,.23,11.73.05,2,.2,4.06.25,6.13.25,3.33.41,6.66.45,10.08a99.37,99.37,0,0,1-.75,13.62c-1.58,9.72-7.34,14.45-16.91,13.71l-.93-.07a75.81,75.81,0,0,1-16-3.84c-6.25-2.14-41.26-16.88-66.84-27.68-16.46-6.87-28.4-11.94-29.51-12.24a8.27,8.27,0,0,0-2.33-.6,1.67,1.67,0,0,0-.84.14l-.86.36.28.44a7.23,7.23,0,0,0-.39,2.34c-.23,5.58-.36,11.27-.48,16.75v.2c-.12,4.14-.25,8.49-.37,12.72l-.07.83c-.12,4.23-.26,8.68-1.61,12.82a4,4,0,0,1-2,2.44,3,3,0,0,1-2.38-.08,4,4,0,0,1-2.26-3,61.58,61.58,0,0,1-.26-7.27c.17-6.21.46-12.49.62-18.59l0-.42c.16-4.75.22-9.52.38-14.27.1-2.58.09-5.17,0-7.15a3.28,3.28,0,0,0-2-3.15c-.8-.38-1.59-.85-2.39-1.23a41.8,41.8,0,0,1-6.46-3.51c-2.17-1.51-3.36-3.47-3.09-5.63s1.65-3.9,4.12-5a54.36,54.36,0,0,1,5.95-1.93l2.75-.72a2.44,2.44,0,0,0,1.83-2.23c.29-2.47.48-4.84.54-7,1.28-33.67,3.53-69.24,7.12-108.75,2.54-28.7,5.9-57.35,9.92-85a104.91,104.91,0,0,1,7.22-26.27,3,3,0,0,1,1.81-1.83,2.17,2.17,0,0,1,.74-.15,3,3,0,0,1,1.2.51,2.84,2.84,0,0,1,1.13,2.78l-.27,2.06c-.73,5.42-1.48,11.07-2.43,16.69C91.79,128.35,89.14,152.91,87,174c-.47,4.63-.74,9.47-1.1,14.1l-.5,6.39v.1c-4,35.43-5.84,71.14-7.65,107.67v1.34c-.28,5-.33,6.93.35,7.6v.11l.2.11a2,2,0,0,0,.91.28,37.59,37.59,0,0,0,5.32-.41h.1c.83,0,1.88-.17,2.92-.3,20.66-1.91,41.7-2,60.36-2.15,11.82-.11,24.52.46,39.86,1.66l6.9.53.41,0a32.3,32.3,0,0,0,4.87.07A1.14,1.14,0,0,0,201,310c.31-3.92.34-6.92.35-9.71-.15-32.75,1.1-62.18,4.1-90,2-19.42,4.49-39.12,6.9-58.1l.8-6.26c1.39-11.29,3.21-22.74,4.8-33.81V112l.34-1.74c.68-4.82,1.67-9.4,2.6-13.37l.05-.61v-.11a3.82,3.82,0,0,1,1.26-2.91,2.87,2.87,0,0,1,1.68-.38c.21,0,.41.13.71.16,2.13.57,2.3,2.55,2,4.51v.1l0,.51,0,.31c-.23,4.43-.47,8.87-1,13.29-1.25,10.77-2.62,21.65-4,32.22l-.05.72c-1.29,10-2.69,21.24-4,32.23a1012.31,1012.31,0,0,0-8,121.93c0,3.11.13,6.23.31,9.25l.06.62c.16,1.88.3,2.92.67,3.47s1.29.72,3.53,1.21c3.67.8,7.34,1.5,11,2.21s7.34,1.4,11.12,2.21a166.47,166.47,0,0,1,26,7.62l.4.24a21.11,21.11,0,0,1,7,3.86,4.79,4.79,0,0,1,1.56,3.85A4.53,4.53,0,0,1,269,336.7,3.71,3.71,0,0,1,267,337.47ZM68.83,320.82l-1.15.22s-2.75.72-4.44,1a1.31,1.31,0,0,0-1,1.07,1.18,1.18,0,0,0,.62,1.39l4.28,2.2,1.2.61.09-1.24.32-4.12Zm133.9,36.83c-.2-10.78-.58-21.9-1.09-34.06a39.68,39.68,0,0,1,0-4.36l.06-.82-.82-.06-.51,0c-9.58-.75-94.93-3.65-120.66,2.12-.31.07-.62.05-.94.13l-.41,0-.32.08-.72,0,0,.62a.82.82,0,0,1-.14.51v.1a45.07,45.07,0,0,0-.21,5.27c-.07.92,0,1.75-.08,2.47l0,.52.49.25c.7.37,86.73,39.69,115.37,41.91l.31,0c6.29.38,8.26-1,9.13-6.85A40.71,40.71,0,0,0,202.73,357.65Z"/><path class="ba3f5dc1-569a-4c20-a22d-32592de0ebfb" d="M498.24,315.65c.12,1.8-2.82,5.4-8.56,10.91-.79.68-1.46,1.47-2.25,2a33.94,33.94,0,0,1-16.21,8,32.88,32.88,0,0,1-18-1.69,46.83,46.83,0,0,1-12.38-7c-.11,0-.33-.22-.56-.46s-.46-.34-.68-.45l-1.47-1.35a4.63,4.63,0,0,1-.56-.45c-1.91-1.8-3.71-3.71-5.4-5.63a112,112,0,0,1-19,12.16,86.69,86.69,0,0,1-27.92,8.78,43.59,43.59,0,0,1-6.64.45,58.49,58.49,0,0,1-19.6-3.48,73.36,73.36,0,0,1-17.11-9l-6.53-5.29c-2.69-2.7-5.4-5.3-7.88-8.11v.23c-.11-.11-.22-.34-.45-.45a5,5,0,0,0-.67-.79,140,140,0,0,1-14.3,4.5c-2,.56-4.17,1-6.31,1.46s-3.94.69-5.29.91a57.77,57.77,0,0,1-13.06,25.55c-3.49,3.5-6.65,5.3-9.68,5.3-.45,0-.9-.12-1.35-.12-3.5-.78-6.42-3.94-8.67-9.8a43.91,43.91,0,0,1-3.27-14.41c-.22-4-.34-7.54-.45-10.46l-.22-.34a13.79,13.79,0,0,1-3.6-4.17c-1.7-3.26-1.25-7.43,1.24-12.27a37.66,37.66,0,0,1,10.35-12.38c7.65-5.64,14.52-6.54,20.83-2.48A19.51,19.51,0,0,1,300.42,297a50.14,50.14,0,0,1,.45,19.15c5.86-.68,9.8-1.13,11.94-1.58a7.85,7.85,0,0,1,1.46-.22c2.92-.9,6.08-1.92,9.57-3.16-.45-.45-.79-1-1.24-1.46,0,0,0-.12-.11-.12h.11c-12.15-14.74-20.38-30.73-24.54-48.07-5.63-23.19-5.63-48.18-.34-74.87a174,174,0,0,1,27.59-67.55,93.65,93.65,0,0,1,34.33-31.31c13.29-6,24.55-7,33.67-3s15.87,12.83,20.6,26.67l.68,2h-.34c2.25,8.89,1.94,18.44,2.16,27.46a187.93,187.93,0,0,1-1.22,27.52,225.16,225.16,0,0,1-13.62,56.18c-7,18.24-15,36-27.41,51.07a154.49,154.49,0,0,1-40.3,34.79,126.37,126.37,0,0,0,12.5,12.17l.45.45a66.57,66.57,0,0,0,14.53,8.33,48.26,48.26,0,0,0,23.19,3.6,79.78,79.78,0,0,0,25.55-8.34,131,131,0,0,0,18.36-11.36A98.07,98.07,0,0,1,409,273.42c-3-15.76-3.26-32.65-.56-50.66a134.17,134.17,0,0,1,16.89-51.23,64.91,64.91,0,0,1,22.3-24.44h.11c8.56-4.6,16-5.73,22.18-3.37,6.64,2.7,11.82,9.34,15.42,20.16V164a.11.11,0,0,1,.12.11l.45,1.69h-.23a99.34,99.34,0,0,1,3,19.82,176.83,176.83,0,0,1,0,21.84,192.27,192.27,0,0,1-7.77,42.45,142.26,142.26,0,0,1-18.35,38.16,104.61,104.61,0,0,1-25.22,26.46,85.17,85.17,0,0,0,8.44,8.56,40.36,40.36,0,0,0,10,6.19,30.47,30.47,0,0,0,15.42,2.14,23.84,23.84,0,0,0,4.84-1.13,42.38,42.38,0,0,0,12.83-9.34c4.06-4.28,5.75-6.53,5.18-6.87a2.46,2.46,0,0,1,1.13-1.24,2.13,2.13,0,0,1,1.68,0,2.29,2.29,0,0,1,1.36,1.13A2.16,2.16,0,0,1,498.24,315.65ZM295.69,303.48c-.11-5-1.35-8.55-3.6-10.8-3.5-2.93-7.88-3.05-13.29-.34a16.43,16.43,0,0,0-4.84,3.6c-3.15,3.38-4.95,5.74-5.4,7.21A18.35,18.35,0,0,0,267,307a26.54,26.54,0,0,1,1.81-4c2.13-3.37,4.61-5.07,7.65-5.18a5.47,5.47,0,0,1,4.72,2.71l.23.45-.45.22a5.31,5.31,0,0,1-1.35.23,4.92,4.92,0,0,0-2.14.79,6,6,0,0,0-2,2.81,37.64,37.64,0,0,0-2.26,7.43c2,1.24,5.41,2.26,10,3a44.81,44.81,0,0,0,11.59.9A50.91,50.91,0,0,0,295.69,303.48Zm-2.48,18.58a48.33,48.33,0,0,1-10.46.57,33.28,33.28,0,0,1-10.37-2,28.35,28.35,0,0,0-.33,4.84,84.27,84.27,0,0,0,.9,8.66,34,34,0,0,0,2,6.65q1.68,3.72,3.71,4.06c1.24.22,2.7-.45,4.28-2.14C288,337.6,291.42,330.73,293.21,322.06Zm76-50.43c11.7-14.64,19.29-31.95,25.93-49.51a211.29,211.29,0,0,0,13-54.5c1-9.34,1.77-17.77,1.43-27s-.58-18.29-2.94-27.07l-.33-1.35a63.74,63.74,0,0,0-2.38-6.64c-6.74-15.65-18.23-19.93-34.66-13A61.5,61.5,0,0,0,351,104.55,110.11,110.11,0,0,0,329.8,130.1Q298.23,184.31,305,246.51q4.05,33.94,24.65,59.22A151,151,0,0,0,369.22,271.63Zm89,13.17a132.39,132.39,0,0,0,17.33-36.71,170.56,170.56,0,0,0,7.32-62,90.9,90.9,0,0,0-3.15-19.37l-.45-2c-.56-1.57-1.12-3.15-1.68-4.84-2.37-5.86-5.41-9.57-9.13-10.92-3.48-1.35-7.77-.67-12.71,1.92A41.59,41.59,0,0,0,444,159.93a82.18,82.18,0,0,0-13.51,19.6q-19.93,41.21-13.85,87.7c2.26,16.44,8.1,30.85,17.34,42.9l.12-.12.33.45A102,102,0,0,0,458.27,284.8Z"/><path class="ba3f5dc1-569a-4c20-a22d-32592de0ebfb" d="M556.14,347.83a7.46,7.46,0,0,0,.5-1.37,5.74,5.74,0,0,0-.48-3.89,6.77,6.77,0,0,0-3-3.09A25.79,25.79,0,0,0,544,337.1l-.2,0h-1l1.32-3.48c3.42-9.25,12.51-33.81,13.41-43.55.35-3.8-1.09-4.84-2.48-5.84-1.8-1.28-4.16-2.13-5.2-1.05-1.93,2.06-4,4.28-6.07,6.58-6.17,6.74-13.17,14.38-19.28,20-6.69,6.11-14.72,13-23.6,18l-.31.18a12.61,12.61,0,0,1-3.54,1.54l-1,.28,0-1c.25-4,1.25-7.3,3.7-12.15,3.57-7,9.3-15.77,13.9-22.8l2.3-3.5c.71-1.1,1-1.89.84-2.33s-.64-.7-1.63-1a4,4,0,0,0-4.57,1,152.91,152.91,0,0,0-14.15,20.06c-2.89,4.85-5.83,10.12-7.21,16.38-1,4.65-.25,7.49,2.62,9.5s6.1,1.86,10.85-.45c8.6-4.2,16.48-10.83,23.82-17.27,1.45-1.29,4.05-3.86,6.34-6.12,1.51-1.5,2.91-2.89,3.85-3.78,0,0,4.79-4.36,8.64-7.81l2.08-1.85-.91,2.62c-.1.26-.32,1.06-.66,2.25-1.74,6.18-6.38,22.58-11.27,32.18-1.24,2.41-2.61,3.4-5.07,3.62-26.76,2.43-52,11.27-68.42,18.27-18.59,7.9-33.86,17.52-46.71,29.4-8.09,7.51-14,15.09-17.94,23.18a47.31,47.31,0,0,0-5.17,18.19c-.66,11.25,4.85,20.34,15.14,25h0l.45.2c7.6,3.33,15.91,3.8,25.34,1.44C472.41,442.38,498.15,408,512,389.54l1.06-1.4a256.74,256.74,0,0,0,15.72-23.83c2.34-4,4.73-8.18,7.31-12.89.41-.76,1.18-1.94,2.06-3.31s2-3.05,2.91-4.61l.18-.31.36,0c2.24-.23,7.56-.65,8.9.5a2.62,2.62,0,0,1,.58,3.12,5.63,5.63,0,0,1-.82,1.31,3.13,3.13,0,0,1-.31.33c-.21.22-.35.37-.35.5s0,.15.17.39a3.63,3.63,0,0,0,1.85,1.54,2.53,2.53,0,0,0,2.52-.43A7.63,7.63,0,0,0,556.14,347.83Zm-26.55-2.6c-25,45.49-50.85,75.9-79.18,93a93.4,93.4,0,0,1-8.36,4.39A67.77,67.77,0,0,1,424.42,448a52.2,52.2,0,0,1-8.1.65,34.68,34.68,0,0,1-6.85-.61,12.1,12.1,0,0,1-8.49-6.35c-2.32-4.2-3.11-9.07-2.4-14.88.77-6.46,3.19-12.83,7.62-20.05,5.62-9.23,13.32-17.18,24.95-25.77,12.93-9.54,27.7-17.31,46.49-24.46,16.92-6.46,35.47-10.21,48-12.22.54-.09,1.08-.14,1.74-.2l.89-.08,1.76.29Z"/><path class="ba3f5dc1-569a-4c20-a22d-32592de0ebfb" d="M598.87,422.74a249.11,249.11,0,0,1-192.22,95c-37.17.7-75.08-6.4-108.64-23.08-33.33-16.79-63-41-83.89-71.27l.87-.72c25.72,25.84,55.09,47.43,87.89,61.76,32.53,14.55,67.75,23.68,103.75,24.26C478.6,510,550.61,477.4,598,422Z"/><path class="ba3f5dc1-569a-4c20-a22d-32592de0ebfb" d="M771.92,79a54.35,54.35,0,0,0-14.69-1.42c-18.56.81-35.07,3.58-49.65,8.2q-43.43,11.76-93,34c-3.94,1.86-7.88,3.63-11.72,5.37l-4.53,2.11a109.47,109.47,0,0,1-11.84,5.87,11.63,11.63,0,0,1-1.05.5l-1.19.56c-3.29,1.57-6.58,3.14-9.75,4.78l-.9.53A255.73,255.73,0,0,0,545,156.1a33.22,33.22,0,0,0-8.74,7.66,9.73,9.73,0,0,0-1.7,4.27,7.23,7.23,0,0,0,.58,3.24c1.27,2.65,3.52,4,6.82,3.77a21.26,21.26,0,0,0,2.47-.47h.1a2.55,2.55,0,0,1,.84-.22l.29-.05a3.69,3.69,0,0,0,1.73-1.53,3.29,3.29,0,0,0-2-5.07c.17-.13.34-.35.51-.47,1.66-1.32,3.69-2.8,6-4.42a316.68,316.68,0,0,1,30.1-17.21l3.44-1.89c.82-.41,1.35-.78,1.8-1a5.86,5.86,0,0,1,1.17-.67c0,.13,10.73-5.59,11.35-5.9a22.58,22.58,0,0,0,2.19-1,8.83,8.83,0,0,0,1.1-.56,1.35,1.35,0,0,0,.64-.29q47-22.41,78.21-33.69c20.78-7.5,37.37-12.42,49.62-14.85s21.4-3.49,27.31-3.19,9.61.81,11.17,1.46a6.56,6.56,0,0,0,.92.25c3.95.88,6.9,2.3,8.84,4.16a12.44,12.44,0,0,1,3.66,6.2,17.82,17.82,0,0,1,.29,6.51,36.23,36.23,0,0,1-1.28,5.18c-.58,1.36-.87,2-.87,2a15.86,15.86,0,0,1-.65,1.57,13.25,13.25,0,0,0-1.16,2.72,2,2,0,0,0,0,2,1.42,1.42,0,0,0,1,.54,5.68,5.68,0,0,0,1.14-.26l.1,0a4.37,4.37,0,0,0,2.51-2.13,29.69,29.69,0,0,0,3.39-12Q788.83,83.19,771.92,79Z"/><path class="ba3f5dc1-569a-4c20-a22d-32592de0ebfb" d="M659.61,354.38l4.36-5.6,4.19,2.79c8.07,5.21,12.42,7.71,23,7.71a52,52,0,0,0,23.65-5.79C726.92,347,736.67,334.65,736,331.8c-.07-.24-.72-.27-1-.27s-2.34,1.53-4.69,4.83c-9,11.71-24.15,19.56-37.6,19.56-7.87,0-12.6-2-19.46-8.38-2.68-2.68-3.79-3.77-3.79-5.27a3.49,3.49,0,0,1,1.27-2.45l2.1-2.56c8.06-9.74,18-21.76,19.22-24.15a3.18,3.18,0,0,0-1.83-.49,7.78,7.78,0,0,0-2.78.84c-.78.27-3.95,2.87-11.48,11.1-2.09,2.09-4,4.06-5.6,5.73-4.68,4.85-5.06,5.22-6,5.22-2.61,0-12.52-22.74-13.41-25.44-2.94-6.82-4.11-7.4-7-7.4-1.72,0-2.8.27-3.21.79-.56.7-.48,2.42.23,5.24,2,6.68,8.07,19.89,12.73,26.88,1,1.46,3.74,5.94,3.74,7.33s-3.7,6.1-4.84,7.47c-3,3.54-8.67,10.12-8.32,12.14,0,.11.07.44.92.93l.27.2a4,4,0,0,0,2.44,1.1C650.77,364.75,654.23,361.11,659.61,354.38Z"/><path class="ba3f5dc1-569a-4c20-a22d-32592de0ebfb" d="M592.82,127.87c4.14,19.28,8.74,38.43,12.23,58a462.37,462.37,0,0,1,6.55,61.23c1.76,40.48,4.4,86.31-8,123.31-1.21,3.61,1.36,2.31,2.22-.25,12.53-37.28,13.39-82.47,11.71-123.29a470.3,470.3,0,0,0-6.29-61.4c-3.53-20.22-8.3-40-12.58-60-.65-3-6.45-.64-5.8,2.4Z"/><path class="ba3f5dc1-569a-4c20-a22d-32592de0ebfb" d="M603.69,373.87a1.66,1.66,0,0,1-1.25-.56c-.79-.89-.43-2.34-.09-3.35,11.84-35.21,9.91-79,8.2-117.7l-.23-5.14a462.69,462.69,0,0,0-6.53-61.07c-2.47-13.83-5.55-27.72-8.53-41.14-1.24-5.59-2.48-11.18-3.68-16.77-.55-2.55,1.72-4.69,4.15-5.21,2.08-.45,3.74.46,4.13,2.27q1.82,8.4,3.69,16.77c3.13,14.1,6.36,28.67,8.9,43.24a467.48,467.48,0,0,1,6.31,61.57c1.52,36.8,1.55,84.11-11.77,123.75-.58,1.71-1.79,3.07-2.93,3.3A1.61,1.61,0,0,1,603.69,373.87Zm-6.93-248.51a2.49,2.49,0,0,0-.5.06c-1.17.25-2.39,1.26-2.19,2.18h0c1.2,5.59,2.44,11.17,3.68,16.75,3,13.45,6.08,27.36,8.56,41.25A467.89,467.89,0,0,1,612.87,247l.23,5.14c1.34,30.48,2.83,64.16-2.37,94.47,7-33.64,6.7-70.11,5.48-99.74a464.23,464.23,0,0,0-6.27-61.23c-2.53-14.51-5.76-29.06-8.88-43.13q-1.87-8.39-3.69-16.78C597.32,125.49,597.11,125.36,596.76,125.36Z"/><path class="ba3f5dc1-569a-4c20-a22d-32592de0ebfb" d="M687.15,203a11.34,11.34,0,0,0-3.3-.48,26.34,26.34,0,0,0-5.44.23c-4.58.78-8.79,1.41-12.59,2.17-17.3,3.36-36.18,7.94-56.83,13.77-1,.26-1.83.36-2.37.58-1.26.49-2.84.89-3.7,1.2-2.46.87-5.82,2-8.17,2.89a14.2,14.2,0,0,0-1.39.6,11.35,11.35,0,0,1-1.67.69l-1.35.54c-1.39.5-2.45,1-3.64,1.43a55.62,55.62,0,0,0-9.63,4.37,4.66,4.66,0,0,0-2.36,2.5,4.24,4.24,0,0,0-.06,2.85,3.41,3.41,0,0,0,1.62,1.71,3.88,3.88,0,0,0,3,.24c1.22-.38,2.88-1,5.09-1.93s4.23-1.92,6.28-3c.26-.13.54-.26.81-.37,1.24-.54,2.28-1,3.16-1.42.46-.22.91-.42,1.38-.61,2.64-1,10.67-4.06,10.82-4.17s.46-.16.85-.22c.56-.18,1.4-.41,2.53-.77q13.86-4.41,31-8.74c11.42-2.78,21.43-5.15,29.87-7s13-2.82,13.55-2.9a12,12,0,0,0,1.8-.37,6.27,6.27,0,0,0,1.95-.78,1.33,1.33,0,0,0,.79-1.2A2.71,2.71,0,0,0,687.15,203Z"/></svg>